<svg width="71" height="60" viewBox="0 0 71 60" fill="none" xmlns="http://www.w3.org/2000/svg">
<rect width="70.4089" height="60" rx="5" fill="#053E60"/>
<path fill-rule="evenodd" clip-rule="evenodd" d="M31.6597 21.0908V25.4605H33.339C34.022 25.509 35.1292 25.1942 35.1292 24.3288C35.1292 23.6871 34.7109 23.3059 34.151 23.191V23.1788C34.5941 23.0336 34.9324 22.7006 34.9324 22.2226C34.9324 21.3691 34.1204 21.0423 33.3267 21.0908H31.6597ZM33.3576 24.7343C33.8067 24.7343 34.1142 24.6555 34.1142 24.1533C34.1142 23.6509 33.8067 23.5722 33.3576 23.5722H32.6132V24.7343H33.3576ZM33.3576 22.8459C33.7574 22.8459 33.9789 22.6825 33.9789 22.3315C33.9789 21.9805 33.7574 21.8171 33.3576 21.8171H32.6132V22.8459H33.3576Z" fill="#0F84CA"/>
<path d="M36.6598 21.091V25.4607H35.7369V21.091H36.6598" fill="#0F84CA"/>
<path d="M39.4645 25.0854C39.2677 25.3639 38.9785 25.5515 38.5109 25.5515C38.203 25.5515 37.6063 25.3215 37.4958 24.8797C37.4465 24.6921 37.4343 24.4984 37.4343 24.3954V22.4224H38.3571V24.2441C38.3631 24.5711 38.4556 24.9463 38.9109 24.9463C39.1999 24.9463 39.4521 24.686 39.4645 24.2441V22.4224H40.3873V24.916C40.3933 25.0975 40.4056 25.2791 40.4239 25.4607H39.5013L39.4645 25.0854" fill="#0F84CA"/>
<path fill-rule="evenodd" clip-rule="evenodd" d="M42.5511 24.9463C42.0775 24.9463 42.0219 24.5772 42.0219 24.1836H44.0457V24.1836C44.0457 23.984 44.0457 23.7902 44.0212 23.6026C43.9965 23.4089 43.9536 23.2274 43.8678 23.0578C43.6095 22.5253 43.1296 22.3316 42.5511 22.3316C41.6096 22.3316 41.0684 23.0337 41.0684 23.9476C41.0684 24.9644 41.4928 25.5515 42.5511 25.5515C43.271 25.5515 43.8678 25.3034 43.948 24.5528H43.1169C43.0311 24.8312 42.8713 24.9463 42.5511 24.9463ZM42.5512 22.9367C43.0001 22.9367 43.0923 23.2454 43.0923 23.5784H42.022C42.0346 23.2454 42.1268 22.9367 42.5512 22.9367Z" fill="#0F84CA"/>
<path d="M47.1515 22.5071C47.1576 22.0472 46.8748 21.678 46.3026 21.678C45.6256 21.678 45.4534 22.6644 45.4534 23.2757C45.4534 23.8871 45.6256 24.8736 46.3026 24.8736C46.8748 24.8736 47.1576 24.5045 47.1515 24.0443H48.1668C48.1239 25.14 47.3237 25.5515 46.3026 25.5515C45.0171 25.5515 44.4385 24.5528 44.4385 23.2757C44.4385 21.9987 45.0171 21.0001 46.3026 21.0001C47.3237 21.0001 48.1239 21.4116 48.1668 22.5071H47.1515" fill="#0F84CA"/>
<path d="M49.5003 22.4224L49.5186 22.9732H49.5305C49.7276 22.495 50.1218 22.3739 50.5826 22.3861V23.1912H50.183C50.0295 23.2032 49.826 23.2878 49.7341 23.415C49.6354 23.5845 49.617 23.754 49.6109 23.9537V25.4607H48.6946L48.6882 23.0278C48.6882 22.9005 48.6698 22.6465 48.6572 22.4224H49.5003" fill="#0F84CA"/>
<path fill-rule="evenodd" clip-rule="evenodd" d="M50.9944 23.9416C50.9944 24.8978 51.5972 25.5515 52.6056 25.5515C53.6148 25.5515 54.2179 24.8978 54.2179 23.9416C54.2179 22.9852 53.6148 22.3316 52.6056 22.3316C51.5972 22.3316 50.9944 22.9852 50.9944 23.9416ZM53.2643 23.9416C53.2643 24.4257 53.172 24.9463 52.6056 24.9463C52.04 24.9463 51.9477 24.4257 51.9477 23.9416C51.9477 23.4573 52.04 22.9368 52.6056 22.9368C53.172 22.9368 53.2643 23.4573 53.2643 23.9416Z" fill="#0F84CA"/>
<path d="M56.4374 23.2333C56.4247 23.0278 56.2284 22.9368 56.0187 22.9368C55.7668 22.9368 55.6497 23.0095 55.6497 23.2093C55.6497 23.6872 57.4156 23.415 57.4156 24.5528C57.4156 25.2185 56.5908 25.5515 56.0187 25.5515C55.2988 25.5515 54.6719 25.273 54.6589 24.5772H55.5139C55.533 24.813 55.7485 24.9463 56.0187 24.9463C56.2713 24.9463 56.4619 24.8433 56.4619 24.6072C56.4619 24.3653 56.0187 24.2623 55.8342 24.2199C55.2437 24.0808 54.6964 23.9537 54.6964 23.2454C54.6964 22.61 55.4775 22.3316 56.0187 22.3316C56.6708 22.3316 57.225 22.5615 57.2678 23.2333H56.4374" fill="#0F84CA"/>
<path d="M59.5117 23.2333C59.4998 23.0278 59.3027 22.9368 59.0938 22.9368C58.8412 22.9368 58.7245 23.0095 58.7245 23.2093C58.7245 23.6872 60.4899 23.415 60.4899 24.5528C60.4899 25.2185 59.6659 25.5515 59.0938 25.5515C58.3739 25.5515 57.7463 25.273 57.7344 24.5772H58.5894C58.6074 24.813 58.8228 24.9463 59.0938 24.9463C59.3456 24.9463 59.5366 24.8433 59.5366 24.6072C59.5366 24.3653 59.0938 24.2623 58.9093 24.2199C58.3184 24.0808 57.7708 23.9537 57.7708 23.2454C57.7708 22.61 58.5519 22.3316 59.0938 22.3316C59.7455 22.3316 60.2993 22.5615 60.3422 23.2333H59.5117" fill="#0F84CA"/>
<path fill-rule="evenodd" clip-rule="evenodd" d="M31.6597 27.1021V31.472H33.339C34.022 31.5205 35.1292 31.2055 35.1292 30.3401C35.1292 29.6984 34.7109 29.3171 34.151 29.2022V29.1901C34.5941 29.0449 34.9324 28.7119 34.9324 28.2339C34.9324 27.3804 34.1204 27.0537 33.3267 27.1021H31.6597ZM33.3576 30.7455C33.8067 30.7455 34.1142 30.6667 34.1142 30.1644C34.1142 29.6621 33.8067 29.5834 33.3576 29.5834H32.6132V30.7455H33.3576ZM33.3576 28.8572C33.7574 28.8572 33.9789 28.6937 33.9789 28.3427C33.9789 27.9917 33.7574 27.8283 33.3576 27.8283H32.6132V28.8572H33.3576Z" fill="#0F84CA"/>
<path d="M36.6598 27.102V31.4719H35.7369V27.102H36.6598" fill="#0F84CA"/>
<path d="M39.4645 31.0968C39.2677 31.3751 38.9785 31.5627 38.5109 31.5627C38.203 31.5627 37.6063 31.3329 37.4958 30.8908C37.4465 30.7032 37.4343 30.5096 37.4343 30.4067V28.4336H38.3571V30.2552C38.3631 30.5823 38.4556 30.9576 38.9109 30.9576C39.1999 30.9576 39.4521 30.6972 39.4645 30.2552V28.4336H40.3873V30.9272C40.3933 31.1086 40.4056 31.2902 40.4239 31.472H39.5013L39.4645 31.0968" fill="#0F84CA"/>
<path fill-rule="evenodd" clip-rule="evenodd" d="M42.5511 30.9576C42.0775 30.9576 42.0219 30.5882 42.0219 30.1949H44.0457V30.1949C44.0457 29.9952 44.0457 29.8015 44.0212 29.6139C43.9965 29.4201 43.9536 29.2386 43.8678 29.069C43.6095 28.5365 43.1296 28.3428 42.5511 28.3428C41.6096 28.3428 41.0684 29.0449 41.0684 29.9588C41.0684 30.9756 41.4928 31.5627 42.5511 31.5627C43.271 31.5627 43.8678 31.3145 43.948 30.564H43.1169C43.0311 30.8423 42.8713 30.9576 42.5511 30.9576ZM42.5512 28.9479C43.0001 28.9479 43.0923 29.2566 43.0923 29.5896H42.022C42.0346 29.2566 42.1268 28.9479 42.5512 28.9479Z" fill="#0F84CA"/>
<path d="M47.0225 28.3489C46.9854 27.9069 46.7454 27.6892 46.2842 27.6892C45.9333 27.6892 45.5763 27.8708 45.5763 28.2521C45.5763 28.7241 46.0072 28.7785 46.3884 28.8692C47.0654 29.0388 48.0619 29.2265 48.0619 30.104C48.0619 31.1875 47.1021 31.5627 46.1484 31.5627C45.1338 31.5627 44.4139 31.1753 44.4449 30.0737H45.4166C45.3803 30.558 45.6631 30.885 46.1614 30.885C46.5426 30.885 47.047 30.7699 47.047 30.3037C47.047 29.7893 46.4132 29.753 46.0317 29.6561C45.4105 29.5048 44.5617 29.2265 44.5617 28.4517C44.5617 27.4531 45.497 27.0113 46.4067 27.0113C47.2682 27.0113 47.9387 27.4713 47.9387 28.3489H47.0225" fill="#0F84CA"/>
<path d="M48.7375 31.4719V27.102H49.6537V28.7906L49.6663 28.8026C49.8569 28.5242 50.1462 28.3427 50.6135 28.3427C50.9209 28.3427 51.5179 28.5666 51.6289 29.0085C51.6775 29.1962 51.6901 29.3897 51.6901 29.4926V31.4719H50.7678V29.6438C50.7613 29.317 50.669 28.9479 50.214 28.9479C49.9247 28.9479 49.6728 29.2021 49.6598 29.6438V31.4719H48.7375" fill="#0F84CA"/>
<path fill-rule="evenodd" clip-rule="evenodd" d="M53.4051 31.472V28.4335H52.4824V31.472H53.4051ZM53.4361 27.8829V27.1021H52.4514V27.8829H53.4361Z" fill="#0F84CA"/>
<path fill-rule="evenodd" clip-rule="evenodd" d="M55.5395 30.9576C55.0657 30.9576 55.0102 30.5882 55.0102 30.1949H57.034C57.034 29.9952 57.034 29.8015 57.0095 29.6139C56.985 29.4201 56.9418 29.2386 56.856 29.069C56.597 28.5365 56.1178 28.3428 55.5395 28.3428C54.598 28.3428 54.0569 29.0449 54.0569 29.9588C54.0569 30.9756 54.481 31.5627 55.5395 31.5627C56.2594 31.5627 56.856 31.3145 56.9356 30.564H56.1052C56.0194 30.8423 55.8591 30.9576 55.5395 30.9576ZM55.5395 28.9479C55.9884 28.9479 56.0807 29.2566 56.0807 29.5896H55.0102C55.0221 29.2566 55.1151 28.9479 55.5395 28.9479Z" fill="#0F84CA"/>
<path d="M58.5343 27.102V31.4719H57.6112V27.102H58.5343" fill="#0F84CA"/>
<path fill-rule="evenodd" clip-rule="evenodd" d="M62.3786 27.1022H61.4555V28.7846H61.4436C61.271 28.5304 60.9388 28.3428 60.6185 28.3428C59.6594 28.3428 59.1734 29.1356 59.1734 29.9527C59.1734 30.7335 59.5975 31.5627 60.5018 31.5627C60.9017 31.5627 61.2465 31.3993 61.4497 31.0421H61.4616C61.4616 31.1783 61.4727 31.3091 61.4842 31.4446C61.4849 31.4537 61.4857 31.4629 61.4865 31.472H62.4089C62.4058 31.4213 62.4024 31.3702 62.399 31.3189C62.3888 31.168 62.3786 31.0157 62.3786 30.8665V27.1022ZM61.4555 29.9526C61.4555 30.3703 61.2894 30.9575 60.7912 30.9575C60.2006 30.9575 60.1268 30.4185 60.1268 29.9526C60.1268 29.4865 60.2006 28.9479 60.7912 28.9479C61.2894 28.9479 61.4555 29.535 61.4555 29.9526Z" fill="#0F84CA"/>
<path d="M31.8126 38.9094V34.5395H32.4524L34.1194 38.3466L35.8238 34.5395H36.4325V38.9094H36.0328V34.8725H36.0206L34.3225 38.9094H33.9225L32.2248 34.8905H32.2124V38.9094H31.8126" fill="#0F84CA"/>
<path fill-rule="evenodd" clip-rule="evenodd" d="M37.9822 38.9095V35.8716H37.5266V38.9095H37.9822ZM37.4887 34.9938H38.0204V34.5396H37.4887V34.9938Z" fill="#0F84CA"/>
<path d="M39.2477 38.9094H38.8785V36.5556C38.8785 36.3195 38.8602 36.0772 38.8476 35.8715H39.229L39.2477 36.3195L39.26 36.3312C39.4753 35.956 39.8257 35.7809 40.2259 35.7809C41.2345 35.7809 41.3148 36.658 41.3148 37.009V38.9094H40.9453V36.9488C40.9453 36.4219 40.6378 36.1132 40.1332 36.1132C39.5246 36.1132 39.2477 36.6158 39.2477 37.1606V38.9094" fill="#0F84CA"/>
<path d="M42.6666 38.9094H42.2978V36.5556C42.2978 36.3195 42.2788 36.0772 42.2668 35.8715H42.6483L42.6666 36.3195L42.6792 36.3312C42.8946 35.956 43.245 35.7809 43.6447 35.7809C44.6539 35.7809 44.7342 36.658 44.7342 37.009V38.9094H44.3646V36.9488C44.3646 36.4219 44.0572 36.1132 43.5525 36.1132C42.9438 36.1132 42.6666 36.6158 42.6666 37.1606L42.6666 38.9094" fill="#0F84CA"/>
<path fill-rule="evenodd" clip-rule="evenodd" d="M47.0026 38.6679C46.2457 38.6679 45.9445 38.1231 45.9326 37.4751H48.3195C48.3195 36.5252 47.9437 35.781 46.9108 35.781C45.9938 35.781 45.5319 36.5675 45.5319 37.3906C45.5319 38.22 45.9628 39.0002 46.8859 39.0002C47.6299 39.0002 48.0915 38.6679 48.2821 37.941H47.8944C47.8021 38.3592 47.439 38.6679 47.0026 38.6679ZM46.9162 36.1133C47.5568 36.1133 47.876 36.5557 47.9189 37.1428H45.9445C45.9938 36.6097 46.3138 36.1133 46.9162 36.1133Z" fill="#0F84CA"/>
<path d="M50.1639 35.781C50.7479 35.781 51.2397 35.9804 51.2891 36.6221H50.8895C50.8528 36.2407 50.508 36.1133 50.1264 36.1133C49.7823 36.1133 49.4314 36.2469 49.4314 36.6035C49.4314 37.0514 50.0281 37.0091 50.8647 37.2999C51.185 37.4086 51.3875 37.6814 51.3875 38.0082C51.3875 38.6922 50.7414 39.0002 50.09 39.0002C49.5543 39.0002 48.9392 38.7524 48.9266 38.0809H49.3273C49.3575 38.5343 49.7636 38.6679 50.1823 38.6679C50.5753 38.6679 50.9879 38.4859 50.9879 38.0622C50.9879 37.6267 50.5015 37.554 50.0097 37.4453C49.5236 37.3304 49.0315 37.1905 49.0315 36.6277C49.0315 35.9984 49.622 35.781 50.1639 35.781" fill="#0F84CA"/>
<path fill-rule="evenodd" clip-rule="evenodd" d="M53.4289 39.0002C54.4136 39.0002 54.8686 38.1895 54.8686 37.3906C54.8686 36.5917 54.4136 35.781 53.4289 35.781C52.4445 35.781 51.9891 36.5917 51.9891 37.3906C51.9891 38.1895 52.4445 39.0002 53.4289 39.0002ZM52.3898 37.3906C52.3898 36.8277 52.6845 36.1133 53.4289 36.1133C54.1736 36.1133 54.4691 36.8277 54.4691 37.3906C54.4691 37.9534 54.1736 38.6679 53.4289 38.6679C52.6845 38.6679 52.3898 37.9534 52.3898 37.3906Z" fill="#0F84CA"/>
<path d="M55.8947 36.204H55.2797V35.8717H55.8947V35.2237L56.2644 35.0665V35.8717H56.9652V36.204H56.2644V38.238C56.2579 38.5163 56.4056 38.6679 56.6885 38.6679C56.7991 38.6679 56.9097 38.6617 57.0081 38.6312V38.9462C56.8913 38.976 56.7562 39.0002 56.633 39.0002C55.8519 39.0002 55.8947 38.5101 55.8947 38.0989V36.204" fill="#0F84CA"/>
<path fill-rule="evenodd" clip-rule="evenodd" d="M58.6935 36.1133C59.1298 36.1133 59.3878 36.2711 59.4252 36.7675V37.0458C59.3063 37.0523 59.1814 37.0527 59.0542 37.0532C58.7013 37.0544 58.3316 37.0557 58.0284 37.185C57.6598 37.3359 57.4069 37.6509 57.4069 38.0622C57.4069 38.6555 57.8623 39.0002 58.4344 39.0002C58.8531 39.0002 59.2656 38.7586 59.4007 38.5045L59.4187 38.4616H59.4317L59.4436 38.9096H59.8248C59.8218 38.8573 59.8179 38.8027 59.814 38.7465C59.8024 38.5812 59.7898 38.4017 59.7938 38.2255V36.7855C59.8068 36.0891 59.3824 35.781 58.6989 35.781C58.1087 35.781 57.6349 36.0164 57.5427 36.6401H57.9361C57.9855 36.2282 58.3058 36.1133 58.6935 36.1133ZM59.4253 37.3781C59.462 38.0137 59.3085 38.6679 58.5025 38.6679C58.1268 38.6679 57.8075 38.4741 57.8075 38.0621C57.8075 37.3926 58.6524 37.386 59.2122 37.3816C59.2897 37.381 59.3617 37.3804 59.4253 37.3781Z" fill="#0F84CA"/>
<path d="M24.179 30.6584C23.5109 30.2502 22.9461 29.7541 22.4526 29.14C21.8849 28.4345 21.4398 27.6013 21.0903 26.5927C20.5426 25.0121 20.517 23.3448 21.0217 22.1346L21.0637 22.0335L21.1682 22.0684C21.971 22.3398 22.4342 22.4226 22.8754 22.4891C23.2233 22.5433 23.5009 22.571 23.8319 22.5867C23.9566 22.5918 24.091 22.5955 24.2402 22.5972C24.3897 22.5955 24.5242 22.5918 24.6479 22.5867C24.9797 22.571 25.2573 22.5433 25.6051 22.4891C26.0473 22.4226 26.5096 22.3398 27.3124 22.0684L27.417 22.0335L27.4589 22.1346C27.9632 23.3448 27.9376 25.0112 27.3902 26.5927C27.0406 27.6013 26.5955 28.4345 26.0281 29.14C25.5347 29.753 24.9706 30.2502 24.3026 30.6573L24.2402 30.6951L24.179 30.6584" fill="white"/>
<path d="M13.2386 29.1797C11.5862 29.1797 10.242 27.8571 10.242 26.2314C10.242 24.6053 11.5862 23.2828 13.2386 23.2828C14.8912 23.2828 16.2354 24.6053 16.2354 26.2314C16.2354 27.8571 14.8912 29.1797 13.2386 29.1797" fill="white"/>
<path d="M12.5569 23.8958C12.085 24.0292 11.6718 24.2974 11.361 24.6543L12.6567 24.654C12.6798 24.6477 12.6921 24.6201 12.6668 24.5948C12.5289 24.4471 12.4107 24.1356 12.5569 23.8958" fill="#0F84CA"/>
<path d="M13.2452 26.988C13.2308 26.9875 13.2167 26.9956 13.2051 27.0103L12.237 28.4689C12.5447 28.6043 12.8861 28.6792 13.2452 28.6792C13.605 28.6792 13.9458 28.6043 14.2542 28.4689L13.2864 27.0103C13.2741 26.9956 13.2597 26.9875 13.2452 26.988" fill="#0F84CA"/>
<path d="M12.2995 25.7921L10.8365 25.6595C10.7903 25.8455 10.7661 26.0396 10.7661 26.2401C10.7661 26.8467 10.9912 27.4021 11.3645 27.8284L12.3887 25.9037C12.4135 25.8441 12.405 25.8007 12.2995 25.7921" fill="#0F84CA"/>
<path d="M14.1913 25.7921C14.0859 25.8007 14.078 25.8441 14.1023 25.9037L15.1265 27.8284C15.4999 27.4021 15.7251 26.8467 15.7251 26.2401C15.7251 26.0396 15.7007 25.8455 15.6543 25.6595L14.1913 25.7921" fill="#0F84CA"/>
<path fill-rule="evenodd" clip-rule="evenodd" d="M15.5599 21.0706V23.939H18.4753V28.5247H15.5599V31.3926H10.9144V28.5247H8L8 23.939H10.9144L10.9144 21.0706H15.5599ZM13.2452 23.4068C14.4004 23.4068 15.3964 24.0759 15.8554 25.0417L13.8057 25.0419C13.5133 25.0355 13.3851 24.8673 13.3785 24.7296C13.3713 24.5673 13.3975 24.5163 13.5339 24.3425C13.6831 24.1486 13.5802 23.7744 13.2452 23.768C12.9114 23.7744 12.8079 24.1486 12.9574 24.3425C13.0935 24.5163 13.119 24.5673 13.1122 24.7296C13.1059 24.8673 12.9775 25.0355 12.6852 25.0419L10.6358 25.0417C11.0943 24.0759 12.0904 23.4068 13.2452 23.4068Z" fill="#0F84CA"/>
<path d="M13.8343 24.654L15.1302 24.6543C14.8194 24.2974 14.4052 24.0292 13.9343 23.8958C14.0806 24.1356 13.9623 24.4471 13.824 24.5948C13.7983 24.6201 13.8113 24.6477 13.8343 24.654" fill="#0F84CA"/>
<path fill-rule="evenodd" clip-rule="evenodd" d="M24.2514 21.9416C25.5693 21.9373 26.6918 21.6365 27.819 21.0777C28.5601 22.5119 28.676 24.8336 28.0365 26.7776C27.4205 28.6529 26.2247 30.3603 24.2514 31.4341C22.2782 30.3603 21.0819 28.6529 20.4655 26.7776C19.8269 24.8336 19.9421 22.5056 20.6829 21.0722C21.8093 21.6309 22.9334 21.9452 24.2514 21.9416ZM24.2514 30.5629C25.8741 29.5729 26.7386 28.1563 27.2927 26.5558C27.7847 25.1345 27.905 23.4718 27.364 22.1734C26.5525 22.4477 26.0767 22.5323 25.6353 22.6002C25.2236 22.6636 24.8556 22.7019 24.2532 22.71H24.2497C23.6468 22.7019 23.2799 22.6636 22.8679 22.6002C22.4257 22.5323 21.9503 22.4477 21.1386 22.1734C20.5978 23.4718 20.7182 25.1345 21.2101 26.5558C21.764 28.1563 22.6291 29.5729 24.2514 30.5629ZM24.2514 30.5629C24.2513 30.5634 24.251 30.5636 24.2506 30.5639C24.2503 30.5642 24.2499 30.5644 24.2497 30.565H24.2532C24.253 30.5644 24.2526 30.5641 24.2523 30.5638C24.252 30.5636 24.2516 30.5634 24.2514 30.5629Z" fill="#0F84CA"/>
<path d="M24.2969 30.2076C24.2969 30.2076 24.2967 30.2076 24.2959 30.206C24.2955 30.2076 24.2943 30.2076 24.2938 30.2076H24.2969" fill="#0F84CA"/>
<path fill-rule="evenodd" clip-rule="evenodd" d="M24.2532 23.0839C24.7152 23.0807 25.185 23.0353 25.6605 22.972C26.1344 22.9096 26.5938 22.8028 27.0852 22.674C27.4296 23.6332 27.3561 24.8427 27.0919 25.9199C26.594 27.9484 25.3498 29.4911 24.2514 30.1704C23.1529 29.4911 21.9085 27.9484 21.4106 25.9199C21.1471 24.8427 21.0728 23.6332 21.4176 22.674C21.9087 22.8028 22.368 22.9096 22.8431 22.972C23.3176 23.0353 23.7873 23.0807 24.2498 23.0839H24.2532ZM24.299 29.6525C24.4032 29.6505 24.4249 29.6082 24.4259 29.5536C24.4268 29.4964 24.431 29.3571 24.4359 29.1946L24.4359 29.1945C24.4419 28.9932 24.449 28.7564 24.4524 28.5961C24.4531 28.5773 24.4485 28.5712 24.4414 28.5619C24.4392 28.559 24.4368 28.5558 24.4342 28.5518C24.3823 28.4995 24.3229 28.4627 24.3049 28.4528C24.2519 28.4213 24.1385 28.3869 24.1385 28.3869C24.1385 28.3869 24.1557 29.1354 24.1701 29.5337C24.1733 29.6237 24.2109 29.6543 24.299 29.6525ZM24.7564 28.8021C24.6642 28.8768 24.5533 28.9032 24.5533 28.9032L24.5651 28.6059C24.5651 28.6059 24.5993 28.5769 24.5896 28.5401C24.5737 28.48 24.3594 28.3393 24.2448 28.296C24.1942 28.2767 24.1369 28.2574 24.0791 28.2381C24.0021 28.2122 23.9243 28.1861 23.8609 28.1593C23.6012 28.0481 23.5076 27.8249 23.6123 27.5813C23.6513 27.4908 23.7547 27.4298 23.8117 27.3972C23.8739 27.3611 23.9648 27.3341 23.9648 27.3341L23.991 27.6809C23.991 27.6809 23.9573 27.6923 23.9471 27.7231C23.9278 27.7844 23.984 27.8187 23.9988 27.8249C24.0356 27.841 24.0761 27.8581 24.1187 27.8762L24.1187 27.8762C24.2727 27.9414 24.455 28.0186 24.5961 28.0999C24.8286 28.2346 24.9049 28.332 24.9057 28.4933C24.9059 28.6401 24.8434 28.7317 24.7564 28.8021ZM24.2919 27.1782C24.239 27.1726 24.1823 27.1666 24.1008 27.1569L24.1367 27.7279L24.299 27.805L24.4628 27.8916L24.4766 27.1991C24.4019 27.1898 24.3492 27.1843 24.292 27.1782L24.292 27.1782L24.292 27.1782L24.2919 27.1782L24.2919 27.1782ZM25.1284 27.3074C25.0991 27.4324 25.0177 27.5313 24.8856 27.6095C24.7465 27.6916 24.6021 27.6979 24.6021 27.6979L24.6145 27.2793C24.6145 27.2793 24.6455 27.2711 24.6686 27.2441C24.6905 27.218 24.6961 27.1991 24.6905 27.163C24.6862 27.1396 24.6666 27.1072 24.6296 27.091C24.5913 27.0739 24.5342 27.068 24.5037 27.0649L24.4948 27.064C24.2844 27.0391 24.0908 27.0157 23.8852 26.9827C23.5131 26.9225 23.2498 26.7117 23.2723 26.3614C23.2857 26.1527 23.4863 26.0727 23.6554 26.0052C23.6757 25.9971 23.6955 25.9891 23.7145 25.9812C23.7722 26.0826 23.8246 26.1913 23.8454 26.2447C23.8789 26.3407 23.8976 26.4008 23.8976 26.4008C23.8976 26.4008 23.8177 26.4138 23.824 26.4787C23.8299 26.5362 23.8939 26.5604 23.9338 26.5658L24.0337 26.5795C24.2773 26.6126 24.5633 26.6515 24.7243 26.7055C24.8462 26.747 24.9662 26.8143 25.0351 26.9082C25.1385 27.0478 25.162 27.1626 25.1284 27.3074ZM24.2468 25.6645C24.0344 25.651 23.9464 25.6417 23.9464 25.6417L23.9488 25.7075C23.9488 25.7075 23.8348 25.7349 23.8192 25.7626L23.8159 25.7672C23.8072 25.7791 23.7937 25.7974 23.8162 25.8376C23.8297 25.8619 23.8425 25.8846 23.8547 25.9063C23.9451 26.0663 24.0034 26.1695 24.0499 26.4128C24.2117 26.4334 24.3246 26.4517 24.4981 26.4849L24.5194 25.721C24.5194 25.721 24.4094 25.6749 24.2468 25.6645ZM24.6441 26.4007C24.6441 26.4007 24.6666 26.038 24.6686 25.8632C24.7665 25.8247 24.7877 25.7316 24.7507 25.6534C24.731 25.6111 24.6567 25.5806 24.6139 25.5697C24.452 25.5296 24.3013 25.5149 24.1407 25.4994C24.0999 25.4954 24.0585 25.4914 24.0161 25.4869C23.8328 25.4676 23.6868 25.4436 23.519 25.4014C23.1742 25.3147 22.8824 25.1581 22.7284 24.8492C22.5401 24.4686 22.7096 23.9946 23.0804 23.8045C23.3639 23.6602 23.6791 23.6866 23.9632 23.7945C24.0507 23.8274 24.1019 23.8973 24.1549 23.9698L24.1751 23.9971C24.1879 24.0142 24.2033 24.0266 24.2185 24.0389C24.2367 24.0535 24.2546 24.0679 24.2676 24.0898C24.2816 24.1123 24.2501 24.1239 24.2372 24.128C24.1744 24.1439 23.9657 24.1456 23.8987 24.1385C23.8134 24.1287 23.6708 24.1329 23.5863 24.1503C23.61 24.1633 23.6341 24.1772 23.6583 24.1911L23.6583 24.1911L23.6586 24.1913L23.6586 24.1913L23.6586 24.1913C23.7263 24.2303 23.7951 24.2699 23.8608 24.2941C23.8844 24.3032 23.9058 24.3082 23.9266 24.313C23.9533 24.3192 23.979 24.3251 24.0069 24.3393C24.0116 24.3418 24.0183 24.3445 24.0258 24.3476C24.0512 24.3581 24.086 24.3725 24.086 24.3934C24.0808 24.4179 24.0393 24.4291 24.0052 24.4384L23.9949 24.4412C23.9142 24.4651 23.8042 24.4682 23.7022 24.4449C23.6427 24.4311 23.5949 24.4099 23.5533 24.3914C23.4813 24.3593 23.4277 24.3355 23.3639 24.3726C23.2963 24.4114 23.2955 24.5017 23.3176 24.5918C23.3532 24.7329 23.504 24.7922 23.6313 24.8329C23.8192 24.8926 24.0126 24.9126 24.206 24.9325H24.206C24.4681 24.9596 24.7303 24.9867 24.9789 25.1127C25.1448 25.1969 25.3344 25.3689 25.3696 25.5517C25.5165 26.311 24.6441 26.4007 24.6441 26.4007ZM25.4159 24.0541C25.3967 24.1154 25.3805 24.1286 25.3495 24.1538L25.3495 24.1538C25.3406 24.161 25.3305 24.1693 25.3187 24.1799C25.2713 24.2227 25.2172 24.266 25.1595 24.3123L25.1595 24.3123L25.1594 24.3123C25.083 24.3736 25.0003 24.4399 24.9185 24.5165C24.8899 24.5436 24.8615 24.5671 24.834 24.5899C24.7744 24.6395 24.7189 24.6855 24.6741 24.7566C24.6589 24.78 24.6249 24.8446 24.6249 24.8446C24.4954 24.8188 24.3643 24.8054 24.2415 24.7929C24.1333 24.7818 24.0316 24.7715 23.9429 24.7538L23.9338 24.5492C23.9338 24.5492 24.1778 24.5467 24.2026 24.4023C24.2033 24.3944 24.1981 24.3512 24.1705 24.3304C24.1367 24.3065 24.0642 24.2792 24.0469 24.2737C24.2317 24.3025 24.3943 24.3695 24.5837 24.4506C24.5955 24.4304 24.564 24.3616 24.5498 24.3456C24.5242 24.317 24.4946 24.2941 24.428 24.2792C24.3126 24.2501 24.0344 24.2165 24.0344 24.2165C24.0344 24.2165 24.1352 24.2133 24.2694 24.2072C24.3282 24.1982 24.3886 24.1754 24.4013 24.1557C24.4159 24.1261 24.3975 24.0819 24.3556 24.0381L24.3409 24.0226C24.3187 23.9992 24.2973 23.9766 24.2786 23.9522C24.27 23.9407 24.2607 23.926 24.2504 23.9099L24.2504 23.9099L24.2504 23.9099L24.2504 23.9098L24.2504 23.9098L24.2504 23.9098C24.2268 23.8727 24.1983 23.8279 24.1625 23.7972C24.1017 23.7244 23.9156 23.656 23.9156 23.656C23.9156 23.656 23.9004 23.5326 23.9309 23.472C23.9536 23.4286 24.0534 23.4234 24.0847 23.4386C24.2238 23.5153 24.3813 23.6 24.5683 23.6316C24.6061 23.6586 24.608 23.6676 24.6189 23.7189L24.62 23.7244C24.6338 23.7883 24.6274 23.8675 24.6215 23.9407C24.616 24.0088 24.6109 24.0716 24.6228 24.1123C24.6356 24.1404 24.6635 24.1389 24.6849 24.1281C24.7641 24.086 24.8318 24.03 24.8987 23.9746L24.8987 23.9746C24.978 23.9088 25.0562 23.8441 25.1513 23.8046C25.2342 23.7694 25.4688 23.8855 25.4159 24.0541ZM23.9768 29.2244C23.9683 29.2835 23.9789 29.3233 23.9876 29.3559C23.9942 29.3805 23.9997 29.4011 23.995 29.4228C23.9768 29.503 23.9252 29.4788 23.8939 29.4192L23.88 29.3929C23.8454 29.3281 23.8226 29.2854 23.8117 29.176C23.7932 28.9869 23.8859 28.8938 23.9324 28.8472L23.9368 28.8427C23.9858 28.795 24.0313 28.7717 24.0313 28.7717L24.0469 29.0976C24.0469 29.0976 23.9921 29.1192 23.9768 29.2244Z" fill="#0F84CA"/>
<path d="M23.71 23.8758C23.7642 23.9142 23.7533 23.9818 23.8328 23.9692C23.8734 23.9627 23.8987 23.9376 23.9345 23.9125C23.9394 23.9086 23.9809 23.9142 23.9922 23.9196C23.9053 23.8318 23.73 23.8308 23.6149 23.8277C23.6448 23.8823 23.6762 23.8524 23.71 23.8758" fill="#0F84CA"/>
<path fill-rule="evenodd" clip-rule="evenodd" d="M28.44 30.8613C28.44 30.538 28.173 30.2897 27.8551 30.2897C27.5346 30.2897 27.2661 30.538 27.2661 30.8613C27.2661 31.1911 27.5346 31.4382 27.8551 31.4382C28.173 31.4382 28.44 31.1911 28.44 30.8613ZM27.8551 31.355C28.125 31.355 28.3343 31.1425 28.3343 30.8614C28.3343 30.5868 28.125 30.3747 27.8551 30.3747C27.5817 30.3747 27.3723 30.5868 27.3723 30.8614C27.3723 31.1425 27.5817 31.355 27.8551 31.355ZM27.8906 30.5286H27.6263V31.1995H27.733V30.9108H27.8449L28.031 31.1995H28.145L27.9503 30.9025C28.0515 30.8925 28.1292 30.8423 28.1292 30.7197C28.1292 30.5909 28.0532 30.5286 27.8906 30.5286ZM27.8438 30.8268H27.733V30.6122H27.8738C27.945 30.6122 28.0231 30.6267 28.0231 30.7154C28.0231 30.8219 27.9375 30.8268 27.8438 30.8268Z" fill="#0F84CA"/>
<path fill-rule="evenodd" clip-rule="evenodd" d="M18.4735 30.8503C18.4735 30.5266 18.2066 30.2784 17.8883 30.2784C17.5684 30.2784 17.2997 30.5266 17.2997 30.8503C17.2997 31.1798 17.5684 31.427 17.8883 31.427C18.2066 31.427 18.4735 31.1798 18.4735 30.8503ZM17.8883 31.3432C18.1581 31.3432 18.3675 31.1309 18.3675 30.8503C18.3675 30.5754 18.1581 30.3629 17.8883 30.3629C17.6152 30.3629 17.4058 30.5754 17.4058 30.8503C17.4058 31.1309 17.6152 31.3432 17.8883 31.3432ZM17.9244 30.5174H17.6602V31.1882H17.7665V30.8995H17.8791L18.0649 31.1882H18.1789L17.9835 30.8912C18.085 30.8815 18.163 30.831 18.163 30.7084C18.163 30.5796 18.087 30.5174 17.9244 30.5174ZM17.8777 30.8152H17.7665V30.601H17.9068C17.9786 30.601 18.0571 30.6156 18.0571 30.7035C18.0571 30.8108 17.971 30.8152 17.8777 30.8152Z" fill="#0F84CA"/>
</svg>
