<svg width="25" height="33" viewBox="0 0 25 33" fill="none" xmlns="http://www.w3.org/2000/svg">
<path d="M13.1165 0.0140339C13.1218 0.0141643 13.1271 0.0144903 13.1323 0.0149956C13.9622 0.0664276 14.7272 0.248624 15.4253 0.537759C16.7339 1.07974 17.8031 1.99603 18.6223 3.12911C19.4371 4.25618 20.004 5.59672 20.312 6.99461C20.7818 9.1268 20.6513 11.3999 19.8813 13.2589C19.4703 14.2514 18.8966 15.2496 18.2002 16.2554C17.5412 17.207 16.7747 18.1634 15.9337 19.1267C17.1948 20.295 18.5154 21.4573 19.7939 22.5825L19.8852 22.6629C20.2418 22.9767 20.607 23.2983 21.1524 23.7817C21.5618 24.1445 21.967 24.5061 22.3684 24.869C22.7462 25.2107 23.1014 25.5358 23.4259 25.839C23.7638 26.1546 24.0901 26.4659 24.4025 26.7727C24.6326 26.9986 24.7665 27.1926 24.7956 27.4215C24.8248 27.6506 24.7441 27.8814 24.5442 28.1757C24.2048 28.6755 23.5743 29.4097 22.7274 30.1022C22.1039 30.6119 21.3593 31.1025 20.5205 31.4663C20.3124 31.5566 20.0874 31.5805 19.8768 31.5437C19.6633 31.5063 19.4629 31.4066 19.3074 31.25C18.5187 30.456 17.6395 29.5952 16.7152 28.6904C15.1593 27.1671 13.4761 25.5193 11.8747 23.8466C10.6511 25.4575 9.63114 26.9809 8.69408 28.3805C7.88257 29.5926 7.13282 30.7124 6.36895 31.7147C6.23767 31.887 6.0541 32.0086 5.84807 32.0705C5.64693 32.1311 5.42301 32.1342 5.20546 32.0712L0.715522 30.7706C0.563948 30.7267 0.432451 30.6575 0.324268 30.5659C0.212612 30.4713 0.126315 30.3539 0.0687216 30.2165C0.0103187 30.0772 -0.0107411 29.9355 0.00509162 29.7955C0.0208374 29.6563 0.0729975 29.5217 0.161083 29.3956C2.2957 26.3414 5.87675 22.8753 8.56989 20.2686L8.61523 20.2247C7.31974 18.6632 6.23056 17.1432 5.52307 15.7483C4.61498 13.9579 4.05717 12.1474 3.84071 10.4014C3.61935 8.61573 3.755 6.89575 4.2381 5.3313C4.63965 4.03095 5.46553 2.96152 6.52151 2.12841C7.71198 1.18919 9.19398 0.550945 10.6861 0.222142C11.5492 0.0319639 12.3598 -0.0313073 13.1165 0.0140339ZM18.9294 24.1362C18.8731 24.0867 18.8676 24.0009 18.9172 23.9446C18.9667 23.8884 19.0524 23.8829 19.1087 23.9324C19.4921 24.2699 19.8786 24.6102 20.3759 25.0509C20.7873 25.4156 21.1929 25.7774 21.5913 26.1377C21.6467 26.1878 21.651 26.2733 21.6009 26.3287C21.5507 26.3841 21.4652 26.3883 21.4098 26.3382C21.0214 25.987 20.6148 25.6243 20.1966 25.2536C19.8641 24.959 19.4033 24.5533 18.9294 24.1362ZM13.0781 0.446854C12.1028 0.445164 11.2971 0.598286 10.6384 0.873153C11.3277 0.800825 12.0917 0.909611 12.8741 1.16147C13.7709 1.45018 14.6942 1.92871 15.5538 2.53691C16.4127 3.14459 17.208 3.88133 17.8499 4.68702C18.7148 5.77285 19.3052 6.98634 19.4084 8.18678C19.613 7.29895 19.6125 6.38244 19.3475 5.42801C19.3386 5.3958 19.3375 5.36328 19.343 5.33244C19.0587 4.63535 18.7007 3.97676 18.2708 3.3821C17.4972 2.31194 16.4901 1.4477 15.2606 0.938467C14.5984 0.66422 13.8704 0.492662 13.0781 0.446854ZM8.92155 2.24553C8.78998 2.43589 8.67499 2.63795 8.57552 2.85C8.20562 3.63857 8.04664 4.56723 8.04153 5.54744C8.03033 7.69761 8.75736 10.0843 9.6296 11.8041C10.334 13.1929 11.5265 14.6886 12.9711 16.2192C14.9159 14.5256 16.788 12.8358 18.0348 11.0702C18.2043 10.83 18.3623 10.5883 18.5075 10.3449C19.4975 8.65117 18.8566 6.64707 17.5103 4.957C16.8923 4.18123 16.1282 3.47305 15.3042 2.89008C14.481 2.30764 13.5981 1.84976 12.7416 1.57406C11.1907 1.07478 9.73533 1.17887 8.92155 2.24553ZM8.1833 2.66663C8.29289 2.43299 8.41949 2.21026 8.5643 2.00028C8.56769 1.99489 8.57134 1.98959 8.57527 1.98442C8.83511 1.61114 9.15299 1.27862 9.53597 0.997598C8.54147 1.34246 7.59387 1.8336 6.78979 2.46799C5.79946 3.24931 5.02613 4.24834 4.65239 5.45865C4.18779 6.96316 4.05794 8.62209 4.27199 10.3488C4.48251 12.047 5.02569 13.8091 5.9102 15.553C7.87745 19.4318 12.8972 24.3461 17.0191 28.3813C17.9436 29.2864 18.8231 30.1474 19.6147 30.9444C19.7049 31.0352 19.8235 31.0934 19.9515 31.1158C20.0825 31.1387 20.2216 31.1243 20.349 31.069C21.1429 30.7246 21.8537 30.2554 22.4523 29.766C23.2663 29.1005 23.8661 28.4039 24.186 27.9329C24.323 27.731 24.3806 27.5903 24.3661 27.4758C24.3515 27.3613 24.2596 27.2398 24.0986 27.0817C23.7943 26.783 23.4704 26.474 23.1305 26.1565C22.7772 25.8265 22.4271 25.5055 22.0781 25.1899C21.6926 24.8414 21.2858 24.4785 20.8654 24.106C20.5811 23.854 20.0989 23.4295 19.5982 22.9889L19.507 22.9085C18.1753 21.7365 16.7982 20.5245 15.4881 19.3055L15.4879 19.3052C15.4847 19.3025 15.4817 19.2996 15.4788 19.2968C12.7964 16.8 10.396 14.2737 9.24248 11.9993C8.34501 10.2298 7.59697 7.76923 7.60856 5.54574C7.61398 4.50592 7.78508 3.51556 8.1833 2.66663ZM13.2713 16.5339C14.0043 17.2951 14.7952 18.0636 15.6156 18.8308C16.4463 17.8788 17.2003 16.9382 17.8436 16.0092C18.5236 15.0272 19.0824 14.0557 19.4806 13.0942C20.1707 11.4282 20.3217 9.40717 19.965 7.47093C19.8404 8.81599 19.2586 10.0892 18.3896 11.3198C17.1164 13.1228 15.2303 14.8276 13.2713 16.5339ZM11.5717 23.5286C10.6316 22.538 9.72472 21.541 8.8942 20.558L8.87213 20.5793C6.19056 23.1748 2.62489 26.626 0.515945 29.6435C0.470609 29.7084 0.444002 29.7756 0.436368 29.843C0.428832 29.9097 0.439781 29.9794 0.46943 30.0501C0.4999 30.1228 0.545492 30.1849 0.604422 30.2348C0.666824 30.2876 0.744672 30.3281 0.836077 30.3546L5.32602 31.6552C5.46053 31.6941 5.59926 31.6921 5.72412 31.6546C5.84411 31.6185 5.94996 31.549 6.02427 31.4515C6.78401 30.4547 7.5284 29.3428 8.33412 28.1394C9.28713 26.716 10.3254 25.1652 11.5717 23.5286Z" fill="#FF4588"/>
</svg>
