<svg width="37" height="24" viewBox="0 0 37 24" fill="none" xmlns="http://www.w3.org/2000/svg">
<path fill-rule="evenodd" clip-rule="evenodd" d="M32.0494 7.96661L30.416 2.72795C29.9099 1.1052 28.4076 0 26.7079 0C23.2874 0 17.1711 0 14.3902 0C12.6858 0 10.9366 0.671507 9.53068 1.87618C8.12745 3.07933 7.18383 4.71312 6.90029 6.41399L6.62894 8.04283C6.57711 8.35381 6.78748 8.64879 7.09884 8.70062C7.41021 8.75245 7.7048 8.54208 7.75663 8.23072L8.02836 6.60226C8.2696 5.15444 9.08021 3.76836 10.2746 2.74433C11.4663 1.72297 12.9454 1.14331 14.3902 1.14331C17.1711 1.14331 23.2874 1.14331 26.7079 1.14331C27.9072 1.14331 28.9674 1.92305 29.3245 3.06827L30.958 8.30694C31.0517 8.60801 31.3726 8.77646 31.6737 8.68233C31.9751 8.58857 32.1432 8.26768 32.0494 7.96661Z" fill="#589BFF"/>
<path fill-rule="evenodd" clip-rule="evenodd" d="M31.6474 12.6004H35.6334C35.9489 12.6004 36.205 12.3447 36.205 12.0287V3.25647C36.205 2.94054 35.9489 2.68481 35.6334 2.68481H31.4991C31.1832 2.68481 30.9275 2.94054 30.9275 3.25647V8.46084C30.9275 8.77601 31.1836 9.03249 31.4991 9.03249C31.8147 9.03249 32.0708 8.77601 32.0708 8.46084V3.82813H35.0617V11.4571H31.6474C31.3318 11.4571 31.0757 11.7132 31.0757 12.0287C31.0757 12.3443 31.3318 12.6004 31.6474 12.6004Z" fill="#589BFF"/>
<path fill-rule="evenodd" clip-rule="evenodd" d="M20.9204 8.13658V0.571657C20.9204 0.256102 20.6643 0 20.3488 0C20.0332 0 19.7771 0.256102 19.7771 0.571657V8.13658C19.7771 8.45214 20.0332 8.70824 20.3488 8.70824C20.6643 8.70824 20.9204 8.45214 20.9204 8.13658Z" fill="#589BFF"/>
<path fill-rule="evenodd" clip-rule="evenodd" d="M12.719 19.6136H20.3487C20.6643 19.6136 20.9204 19.3575 20.9204 19.0419C20.9204 18.7264 20.6643 18.4703 20.3487 18.4703H12.719C12.4035 18.4703 12.1474 18.7264 12.1474 19.0419C12.1474 19.3575 12.4035 19.6136 12.719 19.6136ZM29.1214 19.6136H31.5037C31.8193 19.6136 32.0754 19.3575 32.0754 19.0419V8.1366C32.0754 7.82104 31.8193 7.56494 31.5037 7.56494H6.50814C4.78211 7.56494 3.12659 8.25093 1.90629 9.47123C0.685609 10.6919 0 12.347 0 14.0731V19.0419C0 19.3575 0.256103 19.6136 0.571658 19.6136H3.94673C4.26228 19.6136 4.51839 19.3575 4.51839 19.0419C4.51839 18.7264 4.26228 18.4703 3.94673 18.4703H1.14332V14.0731C1.14332 12.6504 1.7085 11.2857 2.71461 10.2796C3.72073 9.27343 5.08509 8.70826 6.50814 8.70826H30.932V18.4703H29.1214C28.8059 18.4703 28.5498 18.7264 28.5498 19.0419C28.5498 19.3575 28.8059 19.6136 29.1214 19.6136Z" fill="#589BFF"/>
<path fill-rule="evenodd" clip-rule="evenodd" d="M4.10108 12.0792C3.57896 13.1494 2.62658 13.883 1.51566 13.883H0.571658C0.256103 13.883 0 14.1391 0 14.4547C0 14.7702 0.256103 15.0263 0.571658 15.0263H1.51566C3.36211 15.0263 4.95361 13.6159 5.48449 11.6242C5.53403 11.4386 5.48716 11.2404 5.35949 11.0971C5.2322 10.9535 5.04088 10.8837 4.85109 10.9112C4.73562 10.9275 4.61786 10.9359 4.49895 10.9359H1.15475C0.839194 10.9359 0.583091 11.1924 0.583091 11.5076C0.583091 11.8231 0.839194 12.0792 1.15475 12.0792H4.10108Z" fill="#589BFF"/>
<path fill-rule="evenodd" clip-rule="evenodd" d="M8.3328 14.084C5.59646 14.084 3.375 16.3058 3.375 19.0422C3.375 21.7785 5.59646 23.9999 8.3328 23.9999C11.0691 23.9999 13.2906 21.7785 13.2906 19.0422C13.2906 16.3058 11.0691 14.084 8.3328 14.084ZM8.3328 15.2273C10.438 15.2273 12.1473 16.9366 12.1473 19.0422C12.1473 21.1474 10.438 22.8566 8.3328 22.8566C6.22757 22.8566 4.51832 21.1474 4.51832 19.0422C4.51832 16.9366 6.22757 15.2273 8.3328 15.2273Z" fill="#589BFF"/>
<path fill-rule="evenodd" clip-rule="evenodd" d="M24.7353 14.084C21.9989 14.084 19.7771 16.3058 19.7771 19.0422C19.7771 21.7785 21.9989 23.9999 24.7353 23.9999C27.4716 23.9999 29.6931 21.7785 29.6931 19.0422C29.6931 16.3058 27.4716 14.084 24.7353 14.084ZM24.7353 15.2273C26.8405 15.2273 28.5498 16.9366 28.5498 19.0422C28.5498 21.1474 26.8405 22.8566 24.7353 22.8566C22.6297 22.8566 20.9204 21.1474 20.9204 19.0422C20.9204 16.9366 22.6297 15.2273 24.7353 15.2273Z" fill="#589BFF"/>
<path fill-rule="evenodd" clip-rule="evenodd" d="M8.33289 16.7463C7.06571 16.7463 6.03711 17.7749 6.03711 19.0421C6.03711 20.3089 7.06571 21.3379 8.33289 21.3379C9.60006 21.3379 10.6287 20.3089 10.6287 19.0421C10.6287 17.7749 9.60006 16.7463 8.33289 16.7463ZM8.33289 17.8897C8.96895 17.8897 9.48535 18.406 9.48535 19.0421C9.48535 19.6782 8.96895 20.1946 8.33289 20.1946C7.69682 20.1946 7.18043 19.6782 7.18043 19.0421C7.18043 18.406 7.69682 17.8897 8.33289 17.8897Z" fill="#589BFF"/>
<path fill-rule="evenodd" clip-rule="evenodd" d="M24.7352 16.7463C23.4681 16.7463 22.4391 17.7749 22.4391 19.0421C22.4391 20.3089 23.4681 21.3379 24.7352 21.3379C26.002 21.3379 27.031 20.3089 27.031 19.0421C27.031 17.7749 26.002 16.7463 24.7352 16.7463ZM24.7352 17.8897C25.3713 17.8897 25.8877 18.406 25.8877 19.0421C25.8877 19.6782 25.3713 20.1946 24.7352 20.1946C24.0992 20.1946 23.5824 19.6782 23.5824 19.0421C23.5824 18.406 24.0992 17.8897 24.7352 17.8897Z" fill="#589BFF"/>
<path fill-rule="evenodd" clip-rule="evenodd" d="M16.2412 11.4204H19.1532C19.4688 11.4204 19.7249 11.1643 19.7249 10.8488C19.7249 10.5332 19.4688 10.2771 19.1532 10.2771H16.2412C15.9257 10.2771 15.6696 10.5332 15.6696 10.8488C15.6696 11.1643 15.9257 11.4204 16.2412 11.4204Z" fill="#589BFF"/>
</svg>
