<svg width="25" height="25" viewBox="0 0 25 25" fill="none" xmlns="http://www.w3.org/2000/svg">
<g id="catalog">
<path id="Vector" fill-rule="evenodd" clip-rule="evenodd" d="M6.25 1.5625H20.3125C20.7269 1.5625 21.1243 1.72712 21.4174 2.02015C21.7104 2.31317 21.875 2.7106 21.875 3.125V21.875C21.875 22.2894 21.7104 22.6868 21.4174 22.9799C21.1243 23.2729 20.7269 23.4375 20.3125 23.4375H6.25C5.8356 23.4375 5.43817 23.2729 5.14515 22.9799C4.85212 22.6868 4.6875 22.2894 4.6875 21.875V18.75H3.125V17.1875H4.6875V13.2812H3.125V11.7188H4.6875V7.8125H3.125V6.25H4.6875V3.125C4.6875 2.7106 4.85212 2.31317 5.14515 2.02015C5.43817 1.72712 5.8356 1.5625 6.25 1.5625ZM6.25 21.875H20.3125V3.125H6.25V6.25H7.8125V7.8125H6.25V11.7188H7.8125V13.2812H6.25V17.1875H7.8125V18.75H6.25V21.875ZM10.9375 6.25H17.1875V7.8125H10.9375V6.25ZM17.1875 11.7188H10.9375V13.2812H17.1875V11.7188ZM10.9375 17.1875H17.1875V18.75H10.9375V17.1875Z" fill="#404040"/>
</g>
</svg>
