<svg width="25" height="25" viewBox="0 0 25 25" fill="none" xmlns="http://www.w3.org/2000/svg">
<g id="dashboard">
<path id="Vector" fill-rule="evenodd" clip-rule="evenodd" d="M3.125 1.5625H21.875C22.2893 1.56298 22.6864 1.72775 22.9793 2.02067C23.2723 2.31359 23.437 2.71075 23.4375 3.125V21.875C23.4369 22.2892 23.2721 22.6863 22.9792 22.9792C22.6863 23.2721 22.2892 23.4369 21.875 23.4375H3.125C2.71075 23.437 2.31359 23.2723 2.02067 22.9793C1.72775 22.6864 1.56298 22.2893 1.5625 21.875V3.125C1.56291 2.71073 1.72767 2.31354 2.0206 2.0206C2.31354 1.72767 2.71073 1.56291 3.125 1.5625ZM10.9375 8.59375H21.875V3.125H10.9375V8.59375ZM9.375 8.59375V3.125H3.125V8.59375H9.375ZM3.125 10.1562V21.875H21.8766L21.8755 10.1562H3.125ZM8.59375 20.3125C7.55812 20.3113 6.56526 19.8993 5.83296 19.167C5.10066 18.4347 4.68872 17.4419 4.6875 16.4062H6.25C6.25 16.8698 6.38746 17.3229 6.64499 17.7084C6.90253 18.0938 7.26857 18.3942 7.69684 18.5716C8.1251 18.749 8.59635 18.7954 9.05099 18.705C9.50564 18.6145 9.92325 18.3913 10.251 18.0635C10.5788 17.7358 10.802 17.3181 10.8925 16.8635C10.9829 16.4089 10.9365 15.9376 10.7591 15.5093C10.5817 15.0811 10.2813 14.715 9.89587 14.4575C9.51044 14.2 9.0573 14.0625 8.59375 14.0625V12.5C9.62975 12.5 10.6233 12.9116 11.3559 13.6441C12.0884 14.3767 12.5 15.3702 12.5 16.4062C12.5 17.4423 12.0884 18.4358 11.3559 19.1684C10.6233 19.9009 9.62975 20.3125 8.59375 20.3125ZM15.625 12.5H17.1875V20.3125H15.625V12.5ZM18.75 16.4062H20.3125V20.3125H18.75V16.4062Z" fill="#404040"/>
</g>
</svg>
