<svg width="34" height="34" viewBox="0 0 34 34" fill="none" xmlns="http://www.w3.org/2000/svg">
<circle cx="17" cy="17" r="17" fill="#0F84CA"/>
<path d="M12.6286 10C10.0736 10 8.00003 12.074 8.00003 15.25C7.99999 15.2526 7.99999 15.2552 8.00003 15.2578C8.04895 16.5189 8.60399 19.1139 9.45449 21.4531C9.87974 22.6227 10.3735 23.7262 10.9331 24.5547C11.4926 25.3831 12.1263 25.9778 12.8777 26C12.8804 26 12.883 26 12.8857 26C13.2309 26 13.5378 25.8783 13.7777 25.6875C14.0175 25.4967 14.1933 25.2386 14.3402 24.9453C14.634 24.3588 14.8077 23.6243 14.9991 22.8906C15.1905 22.1569 15.4023 21.4285 15.7143 20.8984C16.0229 20.3741 16.3945 20.0525 17 20C17.6055 20.0525 17.9771 20.3741 18.2857 20.8984C18.5977 21.4285 18.8095 22.1569 19.0009 22.8906C19.1923 23.6243 19.366 24.3588 19.6598 24.9453C19.8067 25.2386 19.9825 25.4967 20.2223 25.6875C20.4622 25.8783 20.7691 26 21.1143 26C21.1169 26 21.1196 26 21.1223 26C21.8737 25.9777 22.5074 25.3831 23.0669 24.5547C23.6265 23.7262 24.1203 22.6227 24.5455 21.4531C25.396 19.1139 25.951 16.5189 26 15.2578C26 15.2552 26 15.2526 26 15.25C26 12.074 23.9264 10 21.3714 10C19.6798 10 18.1105 10.7045 17 11.7187C15.8895 10.7045 14.3202 10 12.6286 10ZM12.6286 10.5C14.2373 10.5 15.7629 11.1974 16.783 12.1875C16.7857 12.19 16.7885 12.1928 16.7911 12.1953C16.7936 12.2006 16.7962 12.2058 16.7991 12.2109C16.8031 12.2149 16.8112 12.2148 16.8152 12.2187C16.8178 12.2214 16.8205 12.224 16.8232 12.2266C16.8285 12.2293 16.8338 12.2319 16.8393 12.2344C16.8392 12.237 16.8392 12.2396 16.8393 12.2422C16.8519 12.2512 16.8654 12.259 16.8795 12.2656C16.9022 12.2769 16.9266 12.2848 16.9518 12.2891C16.9597 12.292 16.9677 12.2947 16.9759 12.2969C16.9786 12.2969 16.9812 12.2969 16.9839 12.2969C16.9893 12.297 16.9946 12.297 17 12.2969C17.0027 12.2969 17.0054 12.2969 17.008 12.2969C17.0216 12.2953 17.0351 12.2927 17.0482 12.2891C17.0509 12.2891 17.0536 12.2891 17.0562 12.2891C17.0728 12.2854 17.089 12.2802 17.1045 12.2734C17.1128 12.2687 17.1208 12.2635 17.1286 12.2578C17.1367 12.2556 17.1448 12.253 17.1527 12.25C17.1643 12.2405 17.1751 12.2301 17.1848 12.2187C17.1904 12.2138 17.1958 12.2086 17.2009 12.2031C18.221 11.2051 19.7544 10.5 21.3714 10.5C23.6408 10.5 25.479 12.2746 25.4857 15.2344C25.4857 15.2371 25.4857 15.2395 25.4857 15.2422C25.4856 15.2439 25.4858 15.2483 25.4857 15.25C25.4386 16.3954 24.8945 19.0032 24.0634 21.289C23.6466 22.4353 23.1544 23.5015 22.633 24.2734C22.1144 25.0413 21.5752 25.482 21.1143 25.5C21.1113 25.5 21.1092 25.5 21.1062 25.5C20.8755 25.4975 20.7086 25.4294 20.5518 25.3047C20.3929 25.1783 20.2443 24.979 20.1178 24.7265C19.865 24.2217 19.692 23.505 19.4991 22.7656C19.3062 22.0262 19.0977 21.2634 18.7357 20.6484C18.3737 20.0334 17.8144 19.5607 17.0161 19.5C17.0054 19.4993 16.9946 19.4993 16.9839 19.5C16.1856 19.5607 15.6263 20.0334 15.2643 20.6484C14.9023 21.2634 14.6938 22.0262 14.5009 22.7656C14.308 23.505 14.135 24.2217 13.8822 24.7265C13.7557 24.979 13.6071 25.1783 13.4482 25.3047C13.2914 25.4294 13.1245 25.4983 12.8938 25.5C12.8914 25.4999 12.8881 25.5001 12.8857 25.5C12.4248 25.482 11.8856 25.0413 11.367 24.2734C10.8456 23.5015 10.3534 22.4353 9.93663 21.289C9.10554 19.0033 8.56136 16.3954 8.51432 15.25C8.51432 15.2473 8.51431 15.2449 8.51432 15.2422C8.51425 15.2404 8.51438 15.236 8.51432 15.2344C8.52103 12.2746 10.3592 10.5 12.6286 10.5Z" fill="white"/>
</svg>
