<svg width="25" height="25" viewBox="0 0 25 25" fill="none" xmlns="http://www.w3.org/2000/svg">
<g id="user--favorite--alt">
<path id="Vector" fill-rule="evenodd" clip-rule="evenodd" d="M22.4737 3.32478C21.8861 2.72772 21.0929 2.37723 20.2558 2.34476C19.4188 2.31229 18.6008 2.60027 17.9688 3.15001C17.3367 2.60027 16.5187 2.31229 15.6817 2.34476C14.8446 2.37723 14.0514 2.72772 13.4638 3.32478C12.846 3.95545 12.5 4.80314 12.5 5.68599C12.5 6.56884 12.846 7.41653 13.4638 8.0472L17.9672 12.6093L17.9688 12.6074L17.9703 12.6089L22.4737 8.0472C23.0915 7.41653 23.4375 6.56884 23.4375 5.68599C23.4375 4.80314 23.0915 3.95545 22.4737 3.32478ZM21.3609 6.949L17.9703 10.3844L17.9688 10.3827L17.9672 10.3843L14.5766 6.94892C14.2457 6.61172 14.0603 6.15815 14.0603 5.68572C14.0603 5.21328 14.2457 4.75971 14.5766 4.42251C14.9067 4.10157 15.349 3.92202 15.8094 3.92202C16.2698 3.92202 16.7121 4.10157 17.0423 4.42251L17.9649 5.36579L17.9688 5.36197L17.9726 5.36587L18.8952 4.42259C19.2254 4.10165 19.6677 3.9221 20.1281 3.9221C20.5885 3.9221 21.0308 4.10165 21.3609 4.42259C21.6918 4.75979 21.8772 5.21336 21.8772 5.68579C21.8772 6.15823 21.6918 6.6118 21.3609 6.949ZM12.5 23.4376H10.9375V19.5313C10.9368 18.9099 10.6897 18.3142 10.2503 17.8748C9.81089 17.4354 9.21514 17.1882 8.59375 17.1876H5.46875C4.84736 17.1882 4.25161 17.4354 3.81222 17.8748C3.37283 18.3142 3.12568 18.9099 3.125 19.5313V23.4376H1.5625V19.5313C1.56372 18.4957 1.97566 17.5028 2.70796 16.7705C3.44026 16.0382 4.43312 15.6263 5.46875 15.6251H8.59375C9.62938 15.6263 10.6222 16.0382 11.3545 16.7705C12.0868 17.5028 12.4988 18.4957 12.5 19.5313V23.4376ZM8.33337 8.20755C7.94794 7.95002 7.4948 7.81256 7.03125 7.81256C6.40965 7.81256 5.81351 8.05949 5.37397 8.49903C4.93443 8.93857 4.6875 9.53471 4.6875 10.1563C4.6875 10.6199 4.82496 11.073 5.0825 11.4584C5.34003 11.8439 5.70607 12.1443 6.13434 12.3217C6.5626 12.499 7.03385 12.5455 7.48849 12.455C7.94314 12.3646 8.36075 12.1414 8.68853 11.8136C9.01631 11.4858 9.23953 11.0682 9.32997 10.6136C9.4204 10.1589 9.37399 9.68766 9.1966 9.2594C9.0192 8.83113 8.7188 8.46509 8.33337 8.20755ZM4.86106 6.90838C5.50344 6.47916 6.25867 6.25006 7.03125 6.25006C7.54423 6.25006 8.05218 6.3511 8.52611 6.54741C9.00004 6.74371 9.43066 7.03145 9.79339 7.39418C10.1561 7.7569 10.4438 8.18753 10.6402 8.66145C10.8365 9.13538 10.9375 9.64333 10.9375 10.1563C10.9375 10.9289 10.7084 11.6841 10.2792 12.3265C9.84996 12.9689 9.23988 13.4696 8.52611 13.7652C7.81234 14.0609 7.02692 14.1382 6.26918 13.9875C5.51144 13.8368 4.81541 13.4647 4.26912 12.9184C3.72282 12.3721 3.35078 11.6761 3.20006 10.9184C3.04934 10.1606 3.12669 9.37523 3.42235 8.66145C3.718 7.94768 4.21868 7.33761 4.86106 6.90838Z" fill="#404040"/>
</g>
</svg>
