<svg width="19" height="19" viewBox="0 0 19 19" fill="none" xmlns="http://www.w3.org/2000/svg">
<path d="M10.6875 16.625H8.3125C7.99756 16.625 7.69551 16.4999 7.47281 16.2772C7.25011 16.0545 7.125 15.7524 7.125 15.4375V10.9309L2.72531 6.53125C2.50231 6.30957 2.37633 6.0085 2.375 5.69406V3.5625C2.375 3.24756 2.50011 2.94551 2.72281 2.72281C2.94551 2.50011 3.24756 2.375 3.5625 2.375H15.4375C15.7524 2.375 16.0545 2.50011 16.2772 2.72281C16.4999 2.94551 16.625 3.24756 16.625 3.5625V5.69406C16.6237 6.0085 16.4977 6.30957 16.2747 6.53125L11.875 10.9309V15.4375C11.875 15.7524 11.7499 16.0545 11.5272 16.2772C11.3045 16.4999 11.0024 16.625 10.6875 16.625ZM3.5625 3.5625V5.69406L8.3125 10.4441V15.4375H10.6875V10.4441L15.4375 5.69406V3.5625H3.5625Z" fill="#FFFEFE"/>
</svg>
