<svg width="37" height="16" viewBox="0 0 37 16" fill="none" xmlns="http://www.w3.org/2000/svg">
<path d="M37 6.35783H35.6544C35.0756 2.7602 31.9585 0 28.2002 0C24.5746 0 21.5385 2.56698 20.8088 5.97838C19.3547 5.2244 17.6445 5.2244 16.1908 5.97838C15.4611 2.56739 12.4258 0.000410885 8.80024 0.000410885C5.04146 0.000410885 1.92359 2.7602 1.34516 6.35824H0V7.50319H1.2432C1.2432 7.52251 1.24032 7.54142 1.24032 7.56074C1.24032 11.7294 4.63199 15.1207 8.80065 15.1207C12.9689 15.1207 16.3606 11.7294 16.3606 7.56074C16.3606 7.44399 16.3482 7.33052 16.3433 7.21541C17.6671 6.33234 19.3325 6.33152 20.6575 7.215C20.6522 7.33052 20.6398 7.44399 20.6398 7.56074C20.6398 11.7294 24.0319 15.1207 28.2006 15.1207C32.3688 15.1207 35.7597 11.7294 35.7597 7.56074C35.7597 7.54142 35.7568 7.52251 35.7568 7.50319H37V6.35783ZM8.80065 13.9749C5.26346 13.9749 2.38527 11.0967 2.38527 7.55992C2.38527 4.02272 5.26304 1.14453 8.80065 1.14453C12.3379 1.14453 15.2156 4.02272 15.2156 7.55992C15.2156 11.0971 12.3379 13.9749 8.80065 13.9749ZM28.2002 13.9749C24.6626 13.9749 21.7848 11.0967 21.7848 7.55992C21.7848 4.02272 24.6626 1.14453 28.2002 1.14453C31.7374 1.14453 34.6147 4.02272 34.6147 7.55992C34.6143 11.0971 31.737 13.9749 28.2002 13.9749Z" fill="#0F84CA"/>
</svg>
