<svg width="34" height="34" viewBox="0 0 34 34" fill="none" xmlns="http://www.w3.org/2000/svg">
<circle cx="17" cy="17" r="17" fill="#FF5757"/>
<path fill-rule="evenodd" clip-rule="evenodd" d="M16.761 26.8538C14.5904 25.5179 12.5711 23.9456 10.7393 22.1652C9.45144 20.8829 8.47101 19.3198 7.8731 17.5954C6.79714 14.2503 8.05393 10.4208 11.5711 9.28752C13.4196 8.69243 15.4384 9.03255 16.9961 10.2015C18.5543 9.03398 20.5725 8.69398 22.4211 9.28752C25.9383 10.4208 27.2041 14.2503 26.1281 17.5954C25.5302 19.3198 24.5498 20.8829 23.2619 22.1652C21.4301 23.9456 19.4108 25.5179 17.2402 26.8538L17.0051 27L16.761 26.8538Z" stroke="white" stroke-width="1.5" stroke-linecap="round" stroke-linejoin="round"/>
<path d="M20.7393 13.053C21.8046 13.3933 22.5615 14.3497 22.6561 15.475" stroke="white" stroke-width="1.5" stroke-linecap="round" stroke-linejoin="round"/>
</svg>
