<svg width="30" height="30" viewBox="0 0 30 30" fill="none" xmlns="http://www.w3.org/2000/svg">
<path fill-rule="evenodd" clip-rule="evenodd" d="M14.7012 26.0673C11.988 24.3974 9.46389 22.432 7.17411 20.2065C5.5643 18.6036 4.33876 16.6498 3.59137 14.4943C2.24642 10.3129 3.81741 5.52604 8.2139 4.1094C10.5245 3.36554 13.048 3.79069 14.9951 5.25185C16.9429 3.79248 19.4656 3.36748 21.7764 4.1094C26.1729 5.52604 27.7551 10.3129 26.4101 14.4943C25.6627 16.6498 24.4372 18.6036 22.8274 20.2065C20.5376 22.432 18.0135 24.3974 15.3003 26.0673L15.0064 26.25L14.7012 26.0673Z" stroke="#FF5757" stroke-width="1.5" stroke-linecap="round" stroke-linejoin="round"/>
<path d="M19.6741 8.81616C21.0057 9.24154 21.9518 10.437 22.0701 11.8436" stroke="#FF5757" stroke-width="1.5" stroke-linecap="round" stroke-linejoin="round"/>
</svg>
