<svg width="28" height="24" viewBox="0 0 28 24" fill="none" xmlns="http://www.w3.org/2000/svg">
<path d="M13.9811 0.800446C13.8343 0.803596 13.6972 0.852257 13.5655 0.942634L0.265512 11.4426C-0.0404867 11.6884 -0.0839042 12.1419 0.145199 12.438C0.371009 12.7298 0.851314 12.7765 1.14051 12.5473L14.003 2.39732L26.8655 12.5473C27.1547 12.7765 27.6218 12.728 27.8499 12.438C28.0763 12.1501 28.0519 11.6719 27.7405 11.4426L14.4405 0.942634C14.2847 0.840003 14.128 0.797384 13.9811 0.800446ZM5.25301 10.2176L3.85301 11.3223V22.5005C3.85303 22.6861 3.92679 22.8642 4.05806 22.9954C4.18933 23.1267 4.36737 23.2004 4.55301 23.2005H11.203C11.3887 23.2004 11.5667 23.1267 11.698 22.9954C11.8292 22.8642 11.903 22.6861 11.903 22.5005V18.3005C11.903 17.125 12.8275 16.2005 14.003 16.2005C15.1785 16.2005 16.103 17.125 16.103 18.3005V22.5005C16.103 22.6861 16.1768 22.8642 16.3081 22.9954C16.4393 23.1267 16.6174 23.2004 16.803 23.2005H23.453C23.6387 23.2004 23.8167 23.1267 23.948 22.9954C24.0792 22.8642 24.153 22.6861 24.153 22.5005V11.3223L22.753 10.2176V21.8005H17.503V18.3005C17.503 16.3736 15.9299 14.8005 14.003 14.8005C12.0761 14.8005 10.503 16.3736 10.503 18.3005V21.8005H5.25301V10.2176Z" fill="#9766FF"/>
</svg>
