<svg width="29" height="30" viewBox="0 0 29 30" fill="none" xmlns="http://www.w3.org/2000/svg">
<path d="M28.3934 15.1296H27.9391L24.1235 4.22792H24.7292C25.4863 4.22792 25.4863 3.07718 24.7292 3.07718H15.5536V1.07854C15.5536 0.321477 14.4028 0.321477 14.4028 1.07854V3.07718H5.25752C4.50045 3.07718 4.50045 4.22792 5.25752 4.22792H5.83289L2.04757 15.1296H1.56305C1.41164 15.1296 1.26022 15.1902 1.13909 15.3113C0.442594 16.0381 1.80531 21.3678 6.65052 21.3678C11.7683 21.3678 13.3127 15.1296 11.738 15.1296H11.2837L7.46814 4.22792H14.4028V24.8503H6.86249C6.52939 24.8503 6.28712 25.1229 6.28712 25.4257V28.9384C6.28712 29.2716 6.55967 29.5138 6.86249 29.5138H23.0939C23.427 29.5138 23.6693 29.2413 23.6693 28.9384V25.456C23.6693 25.1229 23.3968 24.8806 23.0939 24.8806H15.5536V4.22792H22.4883L18.703 15.1296C18.3093 15.1296 18.067 15.0691 17.8248 15.3113C17.098 16.0381 18.4607 21.3678 23.3059 21.3678C26.4553 21.3678 28.9688 18.8241 28.9688 15.705C28.9688 15.4022 28.7265 15.1296 28.3934 15.1296ZM2.19898 16.2804H2.47152C5.77232 16.2804 7.83153 16.2804 11.1323 16.2804C10.4358 21.5192 2.8652 21.4284 2.19898 16.2804ZM3.25887 15.1296L6.65052 5.40894L10.0422 15.1296H3.25887ZM22.5186 28.3328H7.43786V26.001H22.5186V28.3328ZM23.3059 5.40894L26.6976 15.1296H19.9143L23.3059 5.40894ZM18.8544 16.2804C22.034 16.2804 24.6989 16.2804 27.7877 16.2804C27.1215 21.5192 19.5206 21.4284 18.8544 16.2804Z" fill="#A95202"/>
</svg>
