<svg width="29" height="28" viewBox="0 0 29 28" fill="none" xmlns="http://www.w3.org/2000/svg">
<path d="M0.507074 17.1498C0.760422 17.1432 0.960713 16.9349 0.959386 16.6829C0.959386 16.6763 0.969998 15.9693 1.50057 15.4361C1.92237 15.0116 2.56967 14.7968 3.42389 14.7968C5.9494 14.7968 6.48395 16.7201 6.50518 16.7997C6.55691 17.0053 6.74128 17.1485 6.95351 17.1498C6.95484 17.1498 6.95484 17.1498 6.95616 17.1498C7.16706 17.1498 7.35144 17.0066 7.40582 16.8023C7.42704 16.7201 7.96159 14.7968 10.4871 14.7968C12.8123 14.7968 13.449 16.4256 13.5525 16.7466V25.5156C13.5525 26.6895 14.5261 27.3036 15.4877 27.3036C16.4494 27.3036 17.423 26.6895 17.423 25.5156H16.4945C16.4945 26.1947 15.8618 26.3751 15.4877 26.3751C15.1137 26.3751 14.481 26.1934 14.481 25.5156V16.8103C14.7078 16.4176 15.7557 14.7968 17.5503 14.7968C19.5811 14.7968 20.6568 16.8739 20.6661 16.8938C20.7444 17.0504 20.9049 17.1498 21.08 17.1498H21.0813C21.2564 17.1498 21.4169 17.0504 21.4965 16.8952C21.5071 16.8739 22.5828 14.7968 24.6136 14.7968C26.5594 14.7968 27.0674 16.7068 27.09 16.797C27.1417 17.0066 27.3288 17.1512 27.541 17.1512C27.5556 17.1512 27.5715 17.1512 27.5861 17.1485C27.8155 17.126 27.9946 16.9376 28.0052 16.7068C28.175 12.8575 26.8022 9.20454 24.1374 6.42037C21.576 3.74364 18.1631 2.22222 14.481 2.10417V0.206055H13.5525V2.10417C9.87298 2.22355 6.46008 3.74364 3.90007 6.42037C1.23661 9.20454 -0.137568 12.8575 0.033541 16.7068C0.0414996 16.9588 0.249748 17.1591 0.507074 17.1498ZM4.56859 7.06103C7.05962 4.45725 10.4155 3.02339 14.0167 3.02339C17.618 3.02339 20.9738 4.45725 23.4635 7.06103C25.5354 9.22708 26.7717 11.9555 27.0343 14.8843C26.4865 14.3179 25.6946 13.8669 24.6109 13.8669C22.8176 13.8669 21.6516 15.0474 21.08 15.8221C20.5083 15.0474 19.341 13.8669 17.549 13.8669C15.8326 13.8669 14.6906 14.9493 14.0937 15.7213C13.5459 14.8379 12.4224 13.8669 10.4858 13.8669C8.63542 13.8669 7.52785 14.753 6.95484 15.6032C6.38182 14.753 5.27293 13.8669 3.42389 13.8669C2.42244 13.8669 1.6173 14.1176 1.02704 14.6111C1.33875 11.7858 2.56171 9.15944 4.56859 7.06103Z" fill="#FF0000"/>
</svg>
