<svg width="28" height="25" viewBox="0 0 28 25" fill="none" xmlns="http://www.w3.org/2000/svg">
<path d="M18.6667 6.24997C19.282 6.24997 19.8835 6.06669 20.3951 5.72331C20.9067 5.37994 21.3055 4.89188 21.541 4.32086C21.7764 3.74985 21.838 3.12152 21.718 2.51533C21.598 1.90914 21.3017 1.35232 20.8666 0.915288C20.4315 0.478251 19.8771 0.180625 19.2736 0.0600471C18.6701 -0.0605311 18.0446 0.001354 17.4761 0.237877C16.9076 0.474399 16.4217 0.874937 16.0799 1.38884C15.738 1.90274 15.5556 2.50692 15.5556 3.12499C15.5556 3.95378 15.8833 4.74863 16.4668 5.33468C17.0502 5.92073 17.8416 6.24997 18.6667 6.24997ZM18.6667 1.56249C18.9743 1.56249 19.2751 1.65413 19.5309 1.82582C19.7867 1.99751 19.9861 2.24154 20.1038 2.52705C20.2216 2.81255 20.2524 3.12672 20.1923 3.42981C20.1323 3.73291 19.9842 4.01131 19.7666 4.22983C19.5491 4.44835 19.2719 4.59717 18.9701 4.65745C18.6684 4.71774 18.3556 4.6868 18.0714 4.56854C17.7871 4.45028 17.5442 4.25001 17.3733 3.99306C17.2023 3.73611 17.1111 3.43402 17.1111 3.12499C17.1116 2.71073 17.2756 2.31358 17.5672 2.02066C17.8589 1.72774 18.2543 1.56297 18.6667 1.56249ZM6.22222 9.37495C6.22222 8.75689 6.03976 8.1527 5.69791 7.6388C5.35605 7.1249 4.87016 6.72437 4.30168 6.48784C3.7332 6.25132 3.10766 6.18944 2.50416 6.31001C1.90067 6.43059 1.34632 6.72822 0.911225 7.16526C0.476128 7.60229 0.179823 8.15911 0.0597805 8.7653C-0.0602624 9.37148 0.00134799 9.99981 0.236821 10.5708C0.472293 11.1418 0.871052 11.6299 1.38267 11.9733C1.89429 12.3167 2.49579 12.4999 3.11111 12.4999C3.93623 12.4999 4.72755 12.1707 5.311 11.5846C5.89445 10.9986 6.22222 10.2037 6.22222 9.37495ZM3.11111 10.9374C2.80345 10.9374 2.5027 10.8458 2.24689 10.6741C1.99108 10.5024 1.7917 10.2584 1.67397 9.97289C1.55623 9.68738 1.52542 9.37322 1.58545 9.07012C1.64547 8.76703 1.79362 8.48862 2.01117 8.2701C2.22872 8.05158 2.50589 7.90277 2.80764 7.84248C3.10939 7.78219 3.42216 7.81314 3.7064 7.9314C3.99064 8.04966 4.23358 8.24993 4.40451 8.50688C4.57544 8.76383 4.66667 9.06592 4.66667 9.37495C4.66619 9.7892 4.50215 10.1864 4.21053 10.4793C3.91891 10.7722 3.52353 10.937 3.11111 10.9374ZM24.8889 6.24997C24.2736 6.24997 23.6721 6.43325 23.1604 6.77662C22.6488 7.12 22.2501 7.60806 22.0146 8.17907C21.7791 8.75009 21.7175 9.37842 21.8376 9.98461C21.9576 10.5908 22.2539 11.1476 22.689 11.5846C23.1241 12.0217 23.6784 12.3193 24.2819 12.4399C24.8854 12.5605 25.511 12.4986 26.0795 12.2621C26.6479 12.0255 27.1338 11.625 27.4757 11.1111C27.8175 10.5972 28 9.99301 28 9.37495C28 8.54615 27.6722 7.7513 27.0888 7.16526C26.5053 6.57921 25.714 6.24997 24.8889 6.24997ZM24.8889 10.9374C24.5812 10.9374 24.2805 10.8458 24.0247 10.6741C23.7689 10.5024 23.5695 10.2584 23.4517 9.97289C23.334 9.68738 23.3032 9.37322 23.3632 9.07012C23.4232 8.76703 23.5714 8.48862 23.7889 8.2701C24.0065 8.05158 24.2837 7.90277 24.5854 7.84248C24.8872 7.78219 25.1999 7.81314 25.4842 7.9314C25.7684 8.04966 26.0114 8.24993 26.1823 8.50688C26.3532 8.76383 26.4444 9.06592 26.4444 9.37495C26.444 9.7892 26.2799 10.1864 25.9883 10.4793C25.6967 10.7722 25.3013 10.937 24.8889 10.9374ZM9.33333 6.24997C9.94865 6.24997 10.5502 6.06669 11.0618 5.72331C11.5734 5.37994 11.9722 4.89188 12.2076 4.32086C12.4431 3.74985 12.5047 3.12152 12.3847 2.51533C12.2646 1.90914 11.9683 1.35232 11.5332 0.915288C11.0981 0.478251 10.5438 0.180625 9.94028 0.0600471C9.33679 -0.0605311 8.71125 0.001354 8.14276 0.237877C7.57428 0.474399 7.08839 0.874937 6.74654 1.38884C6.40469 1.90274 6.22222 2.50692 6.22222 3.12499C6.22222 3.95378 6.55 4.74863 7.13345 5.33468C7.71689 5.92073 8.50822 6.24997 9.33333 6.24997ZM9.33333 1.56249C9.64099 1.56249 9.94175 1.65413 10.1976 1.82582C10.4534 1.99751 10.6527 2.24154 10.7705 2.52705C10.8882 2.81255 10.919 3.12672 10.859 3.42981C10.799 3.73291 10.6508 4.01131 10.4333 4.22983C10.2157 4.44835 9.93856 4.59717 9.63681 4.65745C9.33506 4.71774 9.02229 4.6868 8.73805 4.56854C8.45381 4.45028 8.21086 4.25001 8.03994 3.99306C7.86901 3.73611 7.77778 3.43402 7.77778 3.12499C7.77825 2.71073 7.94229 2.31358 8.23391 2.02066C8.52553 1.72774 8.92092 1.56297 9.33333 1.56249ZM20.1084 12.9279C19.847 11.4921 19.0926 10.1938 17.9765 9.25909C16.8603 8.32438 15.4532 7.81246 14 7.81246C12.5468 7.81246 11.1397 8.32438 10.0235 9.25909C8.90741 10.1938 8.15298 11.4921 7.89162 12.9279C7.04859 13.2456 6.28447 13.7438 5.65226 14.3878C5.02006 15.0318 4.53492 15.8062 4.23049 16.6574C3.92606 17.5085 3.80964 18.416 3.8893 19.3169C3.96896 20.2178 4.2428 21.0905 4.69181 21.8744C5.14082 22.6584 5.75426 23.3348 6.48957 23.8568C7.22487 24.3788 8.06444 24.7338 8.95001 24.8973C9.83559 25.0608 10.746 25.0288 11.618 24.8035C12.49 24.5782 13.3028 24.1651 14 23.5927C14.6974 24.1609 15.5092 24.5703 16.3794 24.7925C17.2497 25.0147 18.1576 25.0445 19.0404 24.8799C19.9233 24.7152 20.76 24.36 21.4928 23.8387C22.2256 23.3175 22.837 22.6427 23.2848 21.8609C23.7326 21.0791 24.0061 20.209 24.0863 19.3107C24.1666 18.4123 24.0517 17.5072 23.7497 16.6578C23.4477 15.8085 22.9657 15.0351 22.337 14.3911C21.7083 13.7471 20.9479 13.2479 20.1084 12.9279ZM17.8889 23.4374C16.8256 23.4326 15.7969 23.058 14.9775 22.3773L14 21.5841L13.0226 22.3773C12.2032 23.058 11.1744 23.4326 10.1111 23.4374C9.02096 23.4397 7.96454 23.0578 7.12591 22.3582C6.28728 21.6585 5.7196 20.6855 5.52177 19.6087C5.32393 18.5319 5.50848 17.4194 6.04327 16.4652C6.57806 15.511 7.42919 14.7755 8.44836 14.3869L9.26355 14.073L9.42153 13.2106C9.6171 12.1341 10.1824 11.1606 11.0191 10.4597C11.8557 9.75884 12.9106 9.37496 14 9.37496C15.0894 9.37496 16.1443 9.75884 16.9809 10.4597C17.8176 11.1606 18.3829 12.1341 18.5785 13.2106L18.7365 14.073L19.5516 14.3869C20.5708 14.7755 21.4219 15.511 21.9567 16.4652C22.4915 17.4194 22.6761 18.5319 22.4782 19.6087C22.2804 20.6855 21.7127 21.6585 20.8741 22.3582C20.0355 23.0578 18.979 23.4397 17.8889 23.4374Z" fill="#C20883"/>
</svg>
