<svg width="25" height="25" viewBox="0 0 25 25" fill="none" xmlns="http://www.w3.org/2000/svg">
<g id="chart--pie">
<path id="Vector" d="M12.5 3.125C10.6458 3.125 8.83324 3.67483 7.29153 4.70497C5.74982 5.73511 4.54821 7.19929 3.83863 8.91234C3.12906 10.6254 2.94341 12.5104 3.30514 14.329C3.66688 16.1475 4.55976 17.818 5.87088 19.1291C7.182 20.4402 8.85246 21.3331 10.671 21.6949C12.4896 22.0566 14.3746 21.8709 16.0877 21.1614C17.8007 20.4518 19.2649 19.2502 20.295 17.7085C21.3252 16.1668 21.875 14.3542 21.875 12.5C21.875 10.0136 20.8873 7.62903 19.1291 5.87087C17.371 4.11272 14.9864 3.125 12.5 3.125ZM20.3125 11.7188H13.2813V4.72656C15.0814 4.89824 16.7662 5.68905 18.0484 6.96414C19.3306 8.23922 20.1308 9.91962 20.3125 11.7188ZM12.0469 20.3125C10.0683 20.2205 8.19847 19.3803 6.81579 17.962C5.4331 16.5437 4.64076 14.6532 4.59907 12.6729C4.55738 10.6926 5.26945 8.77034 6.59122 7.29511C7.91299 5.81987 9.74577 4.90178 11.7188 4.72656V11.7578C11.7188 12.1722 11.8834 12.5696 12.1764 12.8627C12.4694 13.1557 12.8669 13.3203 13.2813 13.3203H20.3125C20.1046 15.3277 19.128 17.1769 17.5872 18.4803C16.0464 19.7837 14.061 20.4403 12.0469 20.3125Z" fill="#404040"/>
</g>
</svg>
