<svg width="35" height="29" viewBox="0 0 35 29" fill="none" xmlns="http://www.w3.org/2000/svg">
<path d="M32.047 11.1891H23.3458L16.2652 1.33567C16.114 1.12425 15.9232 0.94524 15.7038 0.808893C15.4845 0.672546 15.2407 0.581545 14.9867 0.541105L11.8352 0.0155334C11.6464 -0.0155914 11.453 0.000207976 11.2715 0.0615817C11.09 0.122955 10.9258 0.228079 10.793 0.367968C10.6601 0.507858 10.5626 0.678355 10.5087 0.864889C10.4548 1.05142 10.4461 1.24845 10.4834 1.43913L12.3727 11.1891H5.40196L3.15846 8.08533C3.06971 7.96179 2.95786 7.85726 2.8293 7.77772C2.70074 7.69819 2.55801 7.64521 2.40927 7.62183L0.902751 7.37767C0.780719 7.35811 0.655857 7.36838 0.538507 7.40763C0.421156 7.44687 0.314694 7.51397 0.227937 7.60336C0.141179 7.69275 0.0766234 7.80187 0.0396154 7.92166C0.00260732 8.04146 -0.00578798 8.1685 0.0151247 8.29225L1.21627 14.4998L0.0151247 20.7073C-0.00954107 20.8326 -0.00397266 20.962 0.0313532 21.0846C0.0666791 21.2072 0.13071 21.3193 0.217963 21.4112C0.305216 21.5031 0.413092 21.5722 0.532353 21.6125C0.651614 21.6528 0.778708 21.6631 0.902751 21.6426L2.40927 21.3984C2.55801 21.375 2.70074 21.3221 2.8293 21.2425C2.95786 21.163 3.06971 21.0585 3.15846 20.9349L5.40196 17.8105H12.3727L10.4834 27.548C10.4438 27.7396 10.4507 27.9381 10.5036 28.1263C10.5565 28.3145 10.6537 28.4868 10.7868 28.6283C10.92 28.7697 11.085 28.876 11.2677 28.938C11.4504 29 11.6452 29.0158 11.8352 28.984L14.9867 28.475C15.2407 28.4346 15.4845 28.3436 15.7038 28.2072C15.9232 28.0709 16.114 27.8919 16.2652 27.6805L23.3458 17.8105H32.047C32.8547 17.7334 33.605 17.3529 34.1511 16.7432C34.6973 16.1336 35 15.3388 35 14.5143C35 13.6898 34.6973 12.8949 34.1511 12.2853C33.605 11.6757 32.8547 11.2951 32.047 11.2181V11.1891ZM32.047 16.9538H22.9387L15.6097 27.1756C15.5213 27.2999 15.4096 27.4052 15.281 27.4855C15.1524 27.5657 15.0095 27.6193 14.8605 27.6432L11.7049 28.1564C11.6469 28.1634 11.588 28.1563 11.5332 28.1358C11.4784 28.1153 11.4291 28.0818 11.3894 28.0383C11.3497 27.9947 11.3207 27.9422 11.3047 27.885C11.2888 27.8279 11.2864 27.7677 11.2977 27.7094L13.3662 16.9828H4.98664L2.49885 20.4259C2.44618 20.4992 2.36714 20.5483 2.27898 20.5625L0.821317 20.7984L2.04282 14.4998L0.821317 8.2012L2.27898 8.43709C2.36714 8.45131 2.44618 8.50041 2.49885 8.57366L4.98664 12.0168H13.3662L11.2815 1.29429C11.2695 1.23455 11.2722 1.17275 11.2892 1.1143C11.3063 1.05586 11.3371 1.00256 11.3792 0.959079C11.4206 0.915092 11.4718 0.881949 11.5285 0.86249C11.5853 0.84303 11.6458 0.837834 11.7049 0.847343L14.8564 1.35636C15.0062 1.37973 15.1499 1.4331 15.2792 1.51338C15.4085 1.59365 15.5208 1.69924 15.6097 1.824L22.9387 12.0168H32.047C32.6458 12.0828 33.1995 12.3713 33.6018 12.8269C34.004 13.2825 34.2265 13.8731 34.2265 14.4853C34.2265 15.0975 34.004 15.6881 33.6018 16.1437C33.1995 16.5993 32.6458 16.8878 32.047 16.9538Z" fill="#38A412"/>
</svg>
