<svg width="25" height="25" viewBox="0 0 17 16" fill="none" xmlns="http://www.w3.org/2000/svg">
  <circle cx="8.90758" cy="8.00011" r="6.63415" fill="#38A412" />
  <path
    d="M13.1484 7.70082H10.9109L9.09019 5.3224C9.05131 5.27137 9.00226 5.22816 8.94585 5.19525C8.88943 5.16234 8.82676 5.14037 8.76143 5.13061L7.95105 5.00375C7.9025 4.99624 7.85277 5.00005 7.80609 5.01486C7.75942 5.02968 7.7172 5.05505 7.68305 5.08882C7.64889 5.12259 7.62381 5.16374 7.60995 5.20877C7.59609 5.25379 7.59386 5.30135 7.60345 5.34738L8.08926 7.70082H6.29679L5.71989 6.95163C5.69707 6.92181 5.66831 6.89658 5.63525 6.87738C5.60219 6.85818 5.56549 6.8454 5.52724 6.83975L5.13985 6.78082C5.10847 6.7761 5.07636 6.77857 5.04619 6.78805C5.01601 6.79752 4.98864 6.81372 4.96633 6.83529C4.94402 6.85687 4.92742 6.88321 4.9179 6.91213C4.90839 6.94104 4.90623 6.97171 4.9116 7.00158L5.22047 8.49995L4.9116 9.99832C4.90526 10.0286 4.90669 10.0598 4.91578 10.0894C4.92486 10.119 4.94133 10.146 4.96376 10.1682C4.9862 10.1904 5.01394 10.2071 5.04461 10.2168C5.07527 10.2265 5.10795 10.229 5.13985 10.2241L5.52724 10.1651C5.56549 10.1595 5.60219 10.1467 5.63525 10.1275C5.66831 10.1083 5.69707 10.0831 5.71989 10.0533L6.29679 9.29908H8.08926L7.60345 11.6495C7.59326 11.6958 7.59504 11.7437 7.60864 11.7891C7.62223 11.8345 7.64723 11.8761 7.68147 11.9103C7.7157 11.9444 7.75815 11.9701 7.80512 11.985C7.8521 12 7.90219 12.0038 7.95105 11.9961L8.76143 11.8733C8.82676 11.8635 8.88943 11.8416 8.94585 11.8086C9.00226 11.7757 9.05131 11.7325 9.09019 11.6815L10.9109 9.29908H13.1484C13.3561 9.28048 13.549 9.18862 13.6894 9.04147C13.8299 8.89432 13.9077 8.70246 13.9077 8.50344C13.9077 8.30443 13.8299 8.11257 13.6894 7.96542C13.549 7.81827 13.3561 7.72641 13.1484 7.70781V7.70082ZM13.1484 9.0923H10.8062L8.92163 11.5596C8.8989 11.5896 8.87018 11.615 8.83712 11.6344C8.80406 11.6538 8.7673 11.6667 8.72898 11.6725L7.91755 11.7964C7.90263 11.7981 7.8875 11.7964 7.87339 11.7914C7.85929 11.7864 7.84662 11.7784 7.83641 11.7679C7.8262 11.7573 7.81874 11.7447 7.81465 11.7309C7.81055 11.7171 7.80994 11.7025 7.81285 11.6885L8.34473 9.0993H6.18999L5.55028 9.93039C5.53673 9.94807 5.51641 9.95992 5.49374 9.96336L5.11891 10.0203L5.43301 8.49995L5.11891 6.9796L5.49374 7.03654C5.51641 7.03997 5.53673 7.05182 5.55028 7.0695L6.18999 7.9006H8.34473L7.80866 5.31241C7.80559 5.298 7.80628 5.28308 7.81066 5.26897C7.81504 5.25486 7.82298 5.242 7.83379 5.2315C7.84443 5.22088 7.85761 5.21288 7.87219 5.20819C7.88678 5.20349 7.90234 5.20224 7.91755 5.20453L8.72793 5.3274C8.76644 5.33304 8.8034 5.34592 8.83665 5.3653C8.8699 5.38468 8.89878 5.41016 8.92163 5.44027L10.8062 7.9006H13.1484C13.3024 7.91654 13.4447 7.98618 13.5482 8.09615C13.6516 8.20613 13.7088 8.34869 13.7088 8.49645C13.7088 8.64422 13.6516 8.78677 13.5482 8.89675C13.4447 9.00672 13.3024 9.07637 13.1484 9.0923Z"
    fill="white" />
</svg>