<svg width="25" height="25" viewBox="0 0 25 25" fill="none" xmlns="http://www.w3.org/2000/svg">
<g id="Setting">
<path id="Vector" fill-rule="evenodd" clip-rule="evenodd" d="M21.6735 7.94131L21.0252 6.81621C20.4767 5.86421 19.2611 5.5358 18.3078 6.08205C17.8541 6.34936 17.3126 6.4252 16.8028 6.29285C16.293 6.16048 15.8569 5.8308 15.5904 5.37647C15.4191 5.0877 15.327 4.75879 15.3234 4.42301C15.339 3.88465 15.1358 3.36296 14.7604 2.97679C14.385 2.59061 13.8693 2.37282 13.3307 2.37305H12.0245C11.4969 2.37304 10.9909 2.58329 10.6188 2.95728C10.2465 3.33128 10.0387 3.83816 10.0412 4.3658C10.0256 5.45517 9.13798 6.33006 8.04849 6.32994C7.71271 6.32645 7.38379 6.23436 7.09502 6.06297C6.14172 5.51672 4.92615 5.84514 4.37763 6.79715L3.6816 7.94131C3.13374 8.89212 3.45769 10.1069 4.40623 10.6587C5.0228 11.0147 5.40263 11.6726 5.40263 12.3845C5.40263 13.0964 5.0228 13.7542 4.40623 14.1103C3.4589 14.6583 3.1346 15.8702 3.6816 16.8181L4.33949 17.9528C4.59649 18.4165 5.0277 18.7587 5.53769 18.9036C6.04768 19.0486 6.5944 18.9843 7.05689 18.7251C7.51152 18.4598 8.0533 18.3871 8.56179 18.5232C9.07029 18.6592 9.50336 18.9928 9.76474 19.4497C9.93613 19.7385 10.0282 20.0674 10.0317 20.4032C10.0317 21.5037 10.9239 22.3959 12.0245 22.3959H13.3307C14.4276 22.3959 15.3182 21.5096 15.3234 20.4127C15.3209 19.8834 15.5301 19.3751 15.9043 19.0008C16.2785 18.6265 16.787 18.4174 17.3163 18.42C17.6513 18.4289 17.9788 18.5206 18.2697 18.687C19.2205 19.2348 20.4353 18.9108 20.9871 17.9623L21.6735 16.8181C21.9393 16.3621 22.0123 15.8188 21.8763 15.3087C21.7402 14.7987 21.4065 14.3639 20.949 14.1007C20.4914 13.8375 20.1577 13.4027 20.0217 12.8927C19.8856 12.3827 19.9585 11.8395 20.2243 11.3833C20.3971 11.0816 20.6473 10.8315 20.949 10.6587C21.8918 10.1072 22.215 8.89952 21.6735 7.95085V7.94131Z" stroke="#1D1E20" stroke-width="1.5" stroke-linecap="round" stroke-linejoin="round"/>
<path id="Vector_2" d="M12.6824 15.1304C14.199 15.1304 15.4284 13.901 15.4284 12.3844C15.4284 10.8679 14.199 9.63843 12.6824 9.63843C11.1658 9.63843 9.93639 10.8679 9.93639 12.3844C9.93639 13.901 11.1658 15.1304 12.6824 15.1304Z" stroke="#1D1E20" stroke-width="1.5" stroke-linecap="round" stroke-linejoin="round"/>
</g>
</svg>
