<svg width="28" height="26" viewBox="0 0 28 26" fill="none" xmlns="http://www.w3.org/2000/svg">
<path d="M7.20002 0.555664C3.22554 0.555664 4.88261e-05 3.78194 4.88261e-05 8.72231C-1.62754e-05 8.72637 -1.62754e-05 8.73042 4.88261e-05 8.73447C0.0761518 10.6962 0.939535 14.7329 2.26254 18.3716C2.92404 20.191 3.69213 21.9076 4.56253 23.1962C5.43293 24.4849 6.41874 25.41 7.58752 25.4445C7.59169 25.4446 7.59586 25.4446 7.60002 25.4445C8.13699 25.4445 8.61442 25.2552 8.98752 24.9584C9.36062 24.6616 9.63398 24.2601 9.86251 23.8039C10.3196 22.8915 10.5897 21.7491 10.8875 20.6077C11.1853 19.4664 11.5146 18.3334 12 17.5088C12.4801 16.6931 13.0582 16.1928 14 16.1112C14.9418 16.1928 15.5199 16.6931 16 17.5088C16.4854 18.3334 16.8147 19.4664 17.1125 20.6077C17.4103 21.7491 17.6804 22.8915 18.1375 23.8039C18.366 24.2601 18.6394 24.6616 19.0125 24.9584C19.3856 25.2552 19.863 25.4445 20.4 25.4445C20.4041 25.4446 20.4083 25.4446 20.4125 25.4445C21.5813 25.4099 22.5671 24.4849 23.4375 23.1962C24.3079 21.9076 25.076 20.191 25.7375 18.3716C27.0605 14.7329 27.9238 10.6962 28 8.73447C28 8.73042 28 8.72637 28 8.72231C28 3.78194 24.7745 0.555664 20.8 0.555664C18.1687 0.555664 15.7275 1.65158 14 3.22927C12.2725 1.65158 9.83135 0.555664 7.20002 0.555664ZM7.20002 1.33344C9.70251 1.33344 12.0757 2.41833 13.6625 3.95844C13.6666 3.9624 13.6709 3.96662 13.675 3.97059C13.6789 3.97883 13.683 3.98694 13.6875 3.99489C13.6938 4.00104 13.7063 4.0009 13.7125 4.00705C13.7166 4.01119 13.7207 4.01524 13.725 4.0192C13.7332 4.02353 13.7415 4.02759 13.75 4.03135C13.7499 4.0354 13.7499 4.03945 13.75 4.0435C13.7696 4.05748 13.7906 4.06968 13.8125 4.07996C13.8479 4.09748 13.8858 4.10977 13.925 4.11642C13.9373 4.12107 13.9498 4.12513 13.9625 4.12857C13.9667 4.12864 13.9708 4.12864 13.975 4.12857C13.9833 4.12883 13.9917 4.12883 14 4.12857C14.0042 4.12864 14.0083 4.12864 14.0125 4.12857C14.0336 4.12615 14.0545 4.12208 14.075 4.11642C14.0792 4.11648 14.0833 4.11648 14.0875 4.11642C14.1133 4.11075 14.1384 4.10261 14.1625 4.09212C14.1755 4.08471 14.188 4.07659 14.2 4.06781C14.2127 4.06436 14.2252 4.06031 14.2375 4.05566C14.2556 4.04092 14.2723 4.02465 14.2875 4.00705C14.2962 3.99931 14.3045 3.9912 14.3125 3.98274C15.8993 2.43021 18.2846 1.33344 20.8 1.33344C24.3301 1.33344 27.1895 4.09393 27.2 8.69801C27.2 8.70221 27.1999 8.70596 27.2 8.71016C27.1999 8.71288 27.2001 8.71971 27.2 8.72231C27.1268 10.5041 26.2803 14.5607 24.9875 18.1164C24.3391 19.8995 23.5735 21.558 22.7625 22.7587C21.9557 23.9532 21.117 24.6388 20.4 24.6667C20.3953 24.6667 20.3921 24.6668 20.3875 24.6667C20.0285 24.6628 19.769 24.557 19.525 24.3629C19.2779 24.1663 19.0467 23.8563 18.85 23.4636C18.4566 22.6783 18.1876 21.5634 17.8875 20.4133C17.5874 19.2631 17.2631 18.0766 16.7 17.1199C16.1369 16.1631 15.2669 15.4278 14.025 15.3334C14.0083 15.3324 13.9917 15.3324 13.975 15.3334C12.7331 15.4278 11.8631 16.1631 11.3 17.1199C10.7369 18.0766 10.4126 19.2631 10.1125 20.4133C9.81243 21.5634 9.5434 22.6783 9.15002 23.4636C8.95332 23.8563 8.72214 24.1663 8.47502 24.3629C8.23102 24.557 7.97152 24.6642 7.61252 24.6667C7.6088 24.6666 7.60376 24.6669 7.60002 24.6667C6.88298 24.6387 6.04433 23.9532 5.23753 22.7587C4.42653 21.558 3.66085 19.8995 3.01254 18.1164C1.71972 14.5608 0.873225 10.5041 0.800046 8.72231C0.800046 8.71808 0.800041 8.71436 0.800046 8.71016C0.799942 8.70744 0.800147 8.70061 0.800046 8.69801C0.81049 4.09393 3.66991 1.33344 7.20002 1.33344Z" fill="#0F84CA"/>
</svg>
