<svg width="25" height="25" viewBox="0 0 25 25" fill="none" xmlns="http://www.w3.org/2000/svg">
<g id="umbrella">
<path id="Vector" d="M23.4261 12.3672C22.9868 9.92885 21.7539 7.7041 19.9191 6.03914C18.0843 4.37418 15.7507 3.3624 13.2812 3.16125V1.5625H11.7187V3.16125C9.24934 3.3624 6.91567 4.37418 5.0809 6.03914C3.24614 7.7041 2.01318 9.92885 1.5739 12.3672C1.54857 12.5142 1.56588 12.6655 1.62378 12.803C1.68169 12.9405 1.77776 13.0586 1.90065 13.1432C2.02354 13.2279 2.1681 13.2755 2.31723 13.2806C2.46636 13.2857 2.61382 13.248 2.74218 13.1719C3.31631 12.7729 3.98953 12.5404 4.6875 12.5C5.35101 12.5161 5.99875 12.7056 6.56628 13.0497C7.1338 13.3938 7.60133 13.8806 7.92234 14.4615C7.9968 14.571 8.0969 14.6606 8.21392 14.7225C8.33095 14.7845 8.46134 14.8168 8.59375 14.8168C8.72615 14.8168 8.85655 14.7845 8.97357 14.7225C9.09059 14.6606 9.1907 14.571 9.26515 14.4615C9.52715 14.0013 9.87961 13.599 10.3013 13.2787C10.723 12.9585 11.2052 12.7269 11.7187 12.598V19.9219C11.7187 20.4399 11.513 20.9367 11.1467 21.3029C10.7804 21.6692 10.2836 21.875 9.76562 21.875C9.24762 21.875 8.75084 21.6692 8.38455 21.3029C8.01827 20.9367 7.8125 20.4399 7.8125 19.9219V19.5312H6.25V19.9219C6.25 20.8543 6.62039 21.7485 7.2797 22.4078C7.93901 23.0671 8.83322 23.4375 9.76562 23.4375C10.698 23.4375 11.5922 23.0671 12.2515 22.4078C12.9109 21.7485 13.2812 20.8543 13.2812 19.9219V12.598C13.7948 12.7269 14.277 12.9585 14.6987 13.2787C15.1204 13.599 15.4728 14.0013 15.7348 14.4615C15.804 14.578 15.9022 14.6745 16.02 14.7415C16.1377 14.8085 16.2708 14.8437 16.4062 14.8437C16.5417 14.8437 16.6748 14.8085 16.7925 14.7415C16.9103 14.6745 17.0085 14.578 17.0777 14.4615C17.3987 13.8806 17.8662 13.3938 18.4337 13.0497C19.0012 12.7056 19.649 12.5161 20.3125 12.5C21.0105 12.5404 21.6837 12.7729 22.2578 13.1719C22.3862 13.248 22.5337 13.2858 22.6828 13.2808C22.832 13.2757 22.9766 13.2281 23.0995 13.1434C23.2225 13.0588 23.3186 12.9407 23.3765 12.8031C23.4344 12.6655 23.4517 12.5143 23.4263 12.3672H23.4261ZM4.6875 10.9375C4.29009 10.9376 3.89469 10.9937 3.51297 11.1042C4.04315 9.62677 4.92329 8.2997 6.07811 7.23652C7.23293 6.17333 8.62806 5.40566 10.1442 4.99914C8.59567 6.99569 7.75825 9.45222 7.76484 11.9789C6.87957 11.3064 5.79922 10.9408 4.6875 10.9375ZM12.5 10.9375C11.348 10.9429 10.2314 11.3367 9.33093 12.0552C9.36047 10.3209 9.80664 6.98492 12.4999 4.88625C15.1802 6.9775 15.632 10.3149 15.6659 12.0525C14.7659 11.3356 13.6506 10.9428 12.5 10.9375ZM20.3125 10.9375C19.2008 10.9408 18.1204 11.3064 17.2352 11.9789C17.2417 9.45222 16.4043 6.99571 14.8558 4.99914C16.3719 5.40566 17.7671 6.17333 18.9219 7.23652C20.0767 8.2997 20.9568 9.62677 21.487 11.1042C21.1053 10.9937 20.7099 10.9376 20.3125 10.9375Z" fill="#404040"/>
</g>
</svg>
