<svg width="39" height="39" viewBox="0 0 39 39" fill="none" xmlns="http://www.w3.org/2000/svg">
<path d="M16.9983 18.7122C16.6458 18.7122 16.3013 18.8167 16.0082 19.0125C15.7151 19.2083 15.4867 19.4866 15.3518 19.8123C15.217 20.1379 15.1817 20.4962 15.2504 20.8419C15.3192 21.1876 15.4889 21.5052 15.7382 21.7544C15.9874 22.0036 16.3049 22.1734 16.6506 22.2421C16.9963 22.3109 17.3546 22.2756 17.6803 22.1407C18.0059 22.0058 18.2842 21.7774 18.4801 21.4843C18.6759 21.1913 18.7804 20.8467 18.7804 20.4943C18.7804 20.0216 18.5926 19.5683 18.2584 19.2341C17.9242 18.8999 17.4709 18.7122 16.9983 18.7122ZM16.9983 21.0883C16.8808 21.0883 16.766 21.0535 16.6683 20.9882C16.5706 20.9229 16.4944 20.8301 16.4495 20.7216C16.4045 20.613 16.3928 20.4936 16.4157 20.3784C16.4386 20.2631 16.4952 20.1573 16.5782 20.0742C16.6613 19.9911 16.7672 19.9346 16.8824 19.9116C16.9976 19.8887 17.1171 19.9005 17.2256 19.9454C17.3342 19.9904 17.4269 20.0665 17.4922 20.1642C17.5575 20.2619 17.5923 20.3768 17.5923 20.4943C17.5923 20.6518 17.5297 20.8029 17.4183 20.9143C17.3069 21.0257 17.1558 21.0883 16.9983 21.0883Z" fill="#4CC005"/>
<path d="M23.2922 16.1607C23.2922 15.7495 23.1702 15.3475 22.9418 15.0056C22.7133 14.6637 22.3886 14.3972 22.0087 14.2398C21.6288 14.0824 21.2107 14.0413 20.8074 14.1215C20.4041 14.2017 20.0336 14.3997 19.7429 14.6905C19.4521 14.9813 19.2541 15.3517 19.1739 15.7551C19.0936 16.1584 19.1348 16.5764 19.2922 16.9563C19.4495 17.3362 19.716 17.6609 20.0579 17.8894C20.3998 18.1179 20.8018 18.2398 21.213 18.2398C21.7645 18.2398 22.2933 18.0207 22.6832 17.6308C23.0731 17.2409 23.2922 16.7121 23.2922 16.1607ZM20.322 16.1607C20.322 15.9844 20.3742 15.8122 20.4722 15.6656C20.5701 15.5191 20.7092 15.4049 20.872 15.3374C21.0349 15.27 21.214 15.2524 21.3869 15.2867C21.5597 15.3211 21.7185 15.406 21.8431 15.5306C21.9677 15.6552 22.0526 15.814 22.087 15.9868C22.1213 16.1597 22.1037 16.3388 22.0363 16.5017C21.9688 16.6645 21.8546 16.8036 21.7081 16.9016C21.5615 16.9995 21.3893 17.0517 21.213 17.0517C20.9767 17.0517 20.7501 16.9578 20.583 16.7907C20.4159 16.6236 20.322 16.397 20.322 16.1607Z" fill="#4CC005"/>
<path d="M22.1367 20.0842C21.7843 20.0842 21.4397 20.1887 21.1466 20.3846C20.8536 20.5804 20.6252 20.8587 20.4903 21.1844C20.3554 21.51 20.3201 21.8683 20.3889 22.214C20.4576 22.5597 20.6273 22.8772 20.8766 23.1265C21.1258 23.3757 21.4434 23.5454 21.789 23.6142C22.1347 23.683 22.4931 23.6477 22.8187 23.5128C23.1443 23.3779 23.4227 23.1495 23.6185 22.8564C23.8143 22.5634 23.9188 22.2188 23.9188 21.8663C23.9188 21.3937 23.7311 20.9404 23.3969 20.6062C23.0627 20.272 22.6094 20.0842 22.1367 20.0842ZM22.1367 22.4604C22.0192 22.4604 21.9044 22.4255 21.8067 22.3603C21.709 22.295 21.6329 22.2022 21.5879 22.0937C21.5429 21.9851 21.5312 21.8657 21.5541 21.7504C21.577 21.6352 21.6336 21.5294 21.7167 21.4463C21.7998 21.3632 21.9056 21.3066 22.0208 21.2837C22.1361 21.2608 22.2555 21.2726 22.364 21.3175C22.4726 21.3625 22.5654 21.4386 22.6306 21.5363C22.6959 21.634 22.7308 21.7488 22.7308 21.8663C22.7308 22.0239 22.6682 22.175 22.5568 22.2864C22.4454 22.3978 22.2943 22.4604 22.1367 22.4604Z" fill="#4CC005"/>
<path d="M34.3739 6.55107C33.1531 6.55186 31.9826 7.03715 31.1194 7.90036C30.2562 8.76356 29.7709 9.93409 29.7701 11.1549C29.7735 11.697 29.8741 12.2342 30.0671 12.7409L27.4207 14.2112C27.1471 13.9536 26.838 13.7365 26.5029 13.5666C26.2671 13.456 26.0473 13.3142 25.8494 13.1449C25.6829 12.9514 25.5412 12.7379 25.4277 12.5093C25.2124 12.0213 24.8646 11.6035 24.4238 11.3034C23.9492 11.0752 23.4211 10.9817 22.8971 11.0331C22.715 11.0423 22.5326 11.0423 22.3506 11.0331L22.8496 8.03616C23.2672 7.98866 23.6547 7.79504 23.9434 7.48952C24.2321 7.18401 24.4035 6.78627 24.4274 6.36659C24.4512 5.94691 24.326 5.53231 24.0737 5.19605C23.8215 4.85979 23.4585 4.62353 23.0489 4.52901C22.6393 4.43448 22.2095 4.48779 21.8354 4.67951C21.4613 4.87123 21.167 5.18901 21.0045 5.5767C20.8421 5.96439 20.8219 6.39704 20.9475 6.79817C21.0732 7.19931 21.3366 7.54312 21.6912 7.76885L21.2278 10.5341C20.8529 10.2847 20.4181 10.1401 19.9685 10.1153C19.4327 10.1553 18.9185 10.3435 18.4834 10.6588C18.2757 10.8016 18.0513 10.9183 17.8151 11.0063C17.5599 11.0557 17.2993 11.0717 17.0399 11.0539C16.5178 10.9958 15.9897 11.0821 15.5132 11.3034C15.0753 11.599 14.7278 12.0103 14.5093 12.4914C14.4826 12.5419 14.4558 12.5865 14.4291 12.634L11.4975 9.69946C12.4619 8.51944 12.9359 7.01392 12.8215 5.49426C12.707 3.97459 12.0129 2.55704 10.8827 1.53476C9.75243 0.512484 8.27254 -0.0363137 6.74905 0.00186651C5.22556 0.0400468 3.77502 0.662284 2.69741 1.73989C1.6198 2.8175 0.997566 4.26804 0.959386 5.79153C0.921206 7.31502 1.47 8.79491 2.49228 9.92514C3.51456 11.0554 4.93211 11.7495 6.45178 11.8639C7.97144 11.9784 9.47696 11.5044 10.657 10.54L13.5915 13.4716L13.4519 13.5518C12.9621 13.7711 12.5441 14.1242 12.246 14.5706C12.0178 15.0451 11.9243 15.5732 11.9757 16.0972C12.0005 16.3557 11.9915 16.6163 11.949 16.8724C11.861 17.1086 11.7443 17.333 11.6015 17.5407C11.2862 17.9758 11.098 18.49 11.058 19.0258C11.098 19.5617 11.2862 20.0758 11.6015 20.5109C11.7443 20.7186 11.861 20.943 11.949 21.1792C11.9985 21.4344 12.0145 21.695 11.9965 21.9544C11.9965 22.1148 11.9965 22.2811 11.9965 22.4504L8.3848 24.2949C7.93575 23.656 7.27269 23.199 6.51574 23.0068C5.75879 22.8146 4.95803 22.8999 4.25856 23.2472C3.55909 23.5946 3.00717 24.181 2.70282 24.9002C2.39846 25.6194 2.3618 26.4239 2.59948 27.1678C2.83715 27.9117 3.33344 28.5459 3.99842 28.9555C4.6634 29.365 5.45307 29.5228 6.22437 29.4002C6.99566 29.2777 7.69754 28.8829 8.20285 28.2874C8.70815 27.692 8.98344 26.9352 8.97883 26.1542C8.97808 25.8928 8.94516 25.6324 8.88082 25.379L12.3351 23.5969C12.6352 23.9696 13.0161 24.2692 13.449 24.4731C13.6802 24.5886 13.895 24.7344 14.0875 24.9068C14.2541 25.1002 14.3958 25.3137 14.5093 25.5424C14.7246 26.0303 15.0724 26.4481 15.5132 26.7483C15.9877 26.9766 16.5159 27.0701 17.0399 27.0186C17.2993 27.0021 17.5597 27.0181 17.8151 27.0661C18.0503 27.1474 18.2747 27.2571 18.4834 27.3928L18.225 30.9065C17.3338 30.97 16.4989 31.3658 15.8858 32.0156C15.2726 32.6654 14.9258 33.5218 14.9141 34.4152C14.9025 35.3085 15.2267 36.1737 15.8227 36.8393C16.4187 37.5049 17.2429 37.9224 18.1322 38.0091C19.0214 38.0958 19.9108 37.8454 20.6241 37.3075C21.3374 36.7695 21.8227 35.9833 21.9838 35.1045C22.1449 34.2257 21.9701 33.3184 21.494 32.5624C21.0179 31.8064 20.2752 31.2567 19.4131 31.0224L19.6358 27.8888C19.745 27.9151 19.8564 27.931 19.9685 27.9364C20.5043 27.8963 21.0185 27.7081 21.4536 27.3928C21.6611 27.2554 21.8845 27.1437 22.1189 27.0602C22.3742 27.0108 22.6347 26.9948 22.8941 27.0126C23.4186 27.0664 23.9478 26.975 24.4238 26.7483C24.8617 26.4526 25.2092 26.0414 25.4277 25.5602C25.5294 25.3644 25.6476 25.1776 25.7811 25.0018L29.9394 28.6997C29.7297 29.0604 29.62 29.4705 29.6216 29.8878C29.6216 30.3577 29.7609 30.8171 30.022 31.2079C30.2831 31.5986 30.6542 31.9032 31.0884 32.083C31.5226 32.2629 32.0003 32.3099 32.4613 32.2182C32.9222 32.1266 33.3456 31.9003 33.6779 31.5679C34.0102 31.2356 34.2365 30.8122 34.3282 30.3513C34.4199 29.8904 34.3728 29.4126 34.193 28.9784C34.0131 28.5443 33.7086 28.1732 33.3178 27.9121C32.9271 27.651 32.4677 27.5116 31.9977 27.5116C31.5659 27.5118 31.1425 27.631 30.774 27.8562L26.7999 24.3038C27.1636 24.1121 27.4708 23.8284 27.691 23.4811C27.9191 23.0065 28.0126 22.4785 27.9612 21.9544C27.9433 21.695 27.9593 21.4344 28.0088 21.1792C28.0902 20.944 28.2 20.7196 28.3355 20.5109C28.6508 20.0758 28.839 19.5617 28.879 19.0258C28.839 18.49 28.6508 17.9758 28.3355 17.5407C28.1981 17.3332 28.0864 17.1098 28.0028 16.8754C27.9534 16.6202 27.9374 16.3596 27.9553 16.1002C27.9653 15.8294 27.9534 15.5582 27.9197 15.2893L30.5928 13.8042C31.0477 14.4489 31.6607 14.9658 32.3729 15.3052C33.0852 15.6446 33.8727 15.7951 34.6599 15.7423C35.4471 15.6895 36.2075 15.4352 36.8681 15.0037C37.5286 14.5723 38.0671 13.9782 38.4318 13.2786C38.7965 12.579 38.9752 11.7973 38.9507 11.0087C38.9261 10.2201 38.6992 9.45108 38.2917 8.77549C37.8842 8.09991 37.3098 7.54046 36.6237 7.15092C35.9376 6.76137 35.1628 6.55481 34.3739 6.55107ZM5.71164 28.2334C5.30043 28.2334 4.89845 28.1114 4.55654 27.883C4.21463 27.6545 3.94814 27.3298 3.79078 26.9499C3.63341 26.57 3.59224 26.1519 3.67246 25.7486C3.75269 25.3453 3.9507 24.9749 4.24148 24.6841C4.53225 24.3933 4.90271 24.1953 5.30602 24.1151C5.70933 24.0348 6.12737 24.076 6.50728 24.2334C6.88719 24.3907 7.21191 24.6572 7.44037 24.9991C7.66882 25.3411 7.79076 25.743 7.79076 26.1542C7.79076 26.7057 7.57171 27.2345 7.1818 27.6244C6.79189 28.0143 6.26306 28.2334 5.71164 28.2334ZM22.6417 5.66002C22.7591 5.66002 22.874 5.69486 22.9717 5.76013C23.0694 5.82541 23.1455 5.91818 23.1905 6.02673C23.2354 6.13528 23.2472 6.25472 23.2243 6.36995C23.2014 6.48518 23.1448 6.59103 23.0617 6.6741C22.9786 6.75718 22.8728 6.81376 22.7575 6.83668C22.6423 6.8596 22.5229 6.84784 22.4143 6.80287C22.3058 6.75791 22.213 6.68177 22.1477 6.58409C22.0825 6.4864 22.0476 6.37155 22.0476 6.25406C22.0476 6.09651 22.1102 5.94541 22.2216 5.83401C22.333 5.72261 22.4841 5.66002 22.6417 5.66002ZM2.14742 5.95704C2.14742 5.01713 2.42614 4.09832 2.94833 3.31681C3.47052 2.5353 4.21272 1.92619 5.08109 1.5665C5.94946 1.20681 6.90498 1.1127 7.82683 1.29607C8.74869 1.47944 9.59546 1.93205 10.2601 2.59667C10.9247 3.26129 11.3773 4.10806 11.5607 5.02992C11.744 5.95177 11.6499 6.90729 11.2902 7.77566C10.9306 8.64403 10.3214 9.38623 9.53994 9.90842C8.75843 10.4306 7.83962 10.7093 6.89971 10.7093C5.63932 10.7093 4.43056 10.2086 3.53934 9.31741C2.64811 8.42619 2.14742 7.21742 2.14742 5.95704ZM20.8595 34.4707C20.8595 34.9407 20.7202 35.4001 20.4591 35.7909C20.198 36.1816 19.8269 36.4862 19.3927 36.666C18.9585 36.8459 18.4808 36.8929 18.0198 36.8012C17.5589 36.7095 17.1355 36.4832 16.8032 36.1509C16.4709 35.8186 16.2446 35.3952 16.1529 34.9343C16.0612 34.4734 16.1083 33.9956 16.2881 33.5614C16.468 33.1272 16.7725 32.7561 17.1633 32.4951C17.554 32.234 18.0134 32.0946 18.4834 32.0946C19.1136 32.0946 19.718 32.3449 20.1636 32.7906C20.6092 33.2362 20.8595 33.8405 20.8595 34.4707ZM33.1858 29.867C33.1858 30.1019 33.1161 30.3316 32.9856 30.527C32.855 30.7224 32.6695 30.8747 32.4524 30.9646C32.2353 31.0545 31.9964 31.0781 31.7659 31.0322C31.5355 30.9864 31.3238 30.8732 31.1576 30.7071C30.9915 30.5409 30.8783 30.3292 30.8325 30.0987C30.7866 29.8683 30.8102 29.6294 30.9001 29.4123C30.99 29.1952 31.1423 29.0097 31.3377 28.8791C31.533 28.7486 31.7627 28.6789 31.9977 28.6789C32.3128 28.6789 32.615 28.8041 32.8378 29.0269C33.0606 29.2497 33.1858 29.5519 33.1858 29.867ZM27.3167 19.9169C27.119 20.2167 26.964 20.5426 26.8563 20.8852C26.7755 21.2455 26.7455 21.6154 26.7672 21.9841C26.7997 22.2895 26.7621 22.5983 26.6573 22.8871C26.4547 23.1296 26.1985 23.3218 25.9088 23.4484C25.2322 23.7486 24.6913 24.2896 24.3911 24.9662C24.2653 25.2563 24.073 25.5127 23.8297 25.7147C23.5373 25.8213 23.2242 25.8589 22.9149 25.8246C22.5462 25.8028 22.1763 25.8328 21.8159 25.9137C21.4775 26.0224 21.1556 26.1773 20.8595 26.374C20.5974 26.5695 20.2915 26.6979 19.9685 26.7483C19.6454 26.6979 19.3396 26.5695 19.0774 26.374C18.7777 26.1763 18.4518 26.0213 18.1092 25.9137C17.8254 25.8451 17.5338 25.8141 17.2419 25.8216H17.0102C16.705 25.855 16.3962 25.8185 16.1073 25.7147C15.8647 25.512 15.6725 25.2558 15.5459 24.9662C15.3802 24.641 15.1692 24.341 14.9192 24.0751C14.6527 23.8283 14.3527 23.6203 14.0281 23.4573C13.7371 23.329 13.4806 23.1336 13.2797 22.8871C13.173 22.5947 13.1354 22.2816 13.1698 21.9722C13.1915 21.6035 13.1615 21.2336 13.0807 20.8733C12.9719 20.5348 12.817 20.213 12.6203 19.9169C12.4248 19.6548 12.2964 19.3489 12.246 19.0258C12.2964 18.7028 12.4248 18.3969 12.6203 18.1348C12.818 17.835 12.973 17.5091 13.0807 17.1665C13.1615 16.8061 13.1915 16.4362 13.1698 16.0675C13.1373 15.7621 13.1748 15.4533 13.2797 15.1646C13.4823 14.922 13.7385 14.7299 14.0281 14.6032C14.3533 14.4375 14.6533 14.2265 14.9192 13.9765C15.166 13.71 15.374 13.4101 15.537 13.0855C15.6653 12.7944 15.8607 12.5379 16.1073 12.337C16.3997 12.2304 16.7127 12.1927 17.0221 12.2271C17.3908 12.2488 17.7607 12.2188 18.121 12.138C18.4595 12.0293 18.7814 11.8744 19.0774 11.6776C19.3396 11.4822 19.6454 11.3537 19.9685 11.3034C20.2915 11.3537 20.5974 11.4822 20.8595 11.6776C21.1593 11.8753 21.4852 12.0303 21.8278 12.138C22.1882 12.2188 22.5581 12.2488 22.9268 12.2271C23.2361 12.1927 23.5492 12.2304 23.8416 12.337C24.0799 12.5409 24.2679 12.7971 24.3911 13.0855C24.5568 13.4106 24.7678 13.7106 25.0178 13.9765C25.2843 14.2233 25.5842 14.4313 25.9088 14.5943C26.1999 14.7226 26.4564 14.9181 26.6573 15.1646C26.764 15.457 26.8016 15.7701 26.7672 16.0794C26.7455 16.4481 26.7755 16.818 26.8563 17.1784C26.965 17.5168 27.12 17.8387 27.3167 18.1348C27.5121 18.3969 27.6406 18.7028 27.691 19.0258C27.6406 19.3489 27.5121 19.6548 27.3167 19.9169ZM34.3739 14.5706C33.6983 14.5706 33.0379 14.3702 32.4762 13.9949C31.9145 13.6196 31.4767 13.0861 31.2182 12.462C30.9596 11.8378 30.892 11.1511 31.0238 10.4885C31.1556 9.8259 31.4809 9.21728 31.9586 8.73958C32.4363 8.26189 33.0449 7.93657 33.7075 7.80478C34.3701 7.67298 35.0568 7.74062 35.681 7.99915C36.3051 8.25768 36.8386 8.69548 37.2139 9.25719C37.5892 9.8189 37.7896 10.4793 37.7896 11.1549C37.7888 12.0605 37.4287 12.9289 36.7883 13.5692C36.1479 14.2096 35.2795 14.5698 34.3739 14.5706Z" fill="#4CC005"/>
</svg>
