<svg width="34" height="34" viewBox="0 0 34 34" fill="none" xmlns="http://www.w3.org/2000/svg">
<circle cx="17" cy="17" r="17" fill="#FFB257"/>
<path d="M31 16.6252H30.0181C29.5957 14.008 27.3211 12 24.5785 12C21.9328 12 19.7173 13.8674 19.1848 16.3492C18.1237 15.8007 16.8757 15.8007 15.8149 16.3492C15.2824 13.8677 13.0675 12.0003 10.4218 12.0003C7.6789 12.0003 5.4037 14.008 4.9816 16.6255H4V17.4584H4.9072C4.9072 17.4725 4.9051 17.4862 4.9051 17.5003C4.9051 20.5329 7.3801 23 10.4221 23C13.4638 23 15.9388 20.5329 15.9388 17.5003C15.9388 17.4154 15.9298 17.3328 15.9262 17.2491C16.8922 16.6067 18.1075 16.6061 19.0744 17.2488C19.0705 17.3328 19.0615 17.4154 19.0615 17.5003C19.0615 20.5329 21.5368 23 24.5788 23C27.6205 23 30.0949 20.5329 30.0949 17.5003C30.0949 17.4862 30.0928 17.4725 30.0928 17.4584H31V16.6252ZM10.4221 22.1665C7.8409 22.1665 5.7406 20.0726 5.7406 17.4997C5.7406 14.9265 7.8406 12.8326 10.4221 12.8326C13.0033 12.8326 15.1033 14.9265 15.1033 17.4997C15.1033 20.0729 13.0033 22.1665 10.4221 22.1665ZM24.5785 22.1665C21.997 22.1665 19.897 20.0726 19.897 17.4997C19.897 14.9265 21.997 12.8326 24.5785 12.8326C27.1597 12.8326 29.2594 14.9265 29.2594 17.4997C29.2591 20.0729 27.1594 22.1665 24.5785 22.1665Z" fill="white"/>
</svg>
