<svg width="25" height="25" viewBox="0 0 25 25" fill="none" xmlns="http://www.w3.org/2000/svg">
  <g id="wallet">
    <path id="Vector" fill-rule="evenodd" clip-rule="evenodd"
      d="M3.125 6.25H21.875C22.2894 6.25 22.6868 6.41462 22.9799 6.70765C23.2729 7.00067 23.4375 7.3981 23.4375 7.8125V20.3125C23.4375 20.7269 23.2729 21.1243 22.9799 21.4174C22.6868 21.7104 22.2894 21.875 21.875 21.875H3.125C2.7106 21.875 2.31317 21.7104 2.02015 21.4174C1.72712 21.1243 1.5625 20.7269 1.5625 20.3125V3.90625C1.5625 3.49185 1.72712 3.09442 2.02015 2.8014C2.31317 2.50837 2.7106 2.34375 3.125 2.34375H20.3125V3.90625H3.125V6.25ZM3.125 7.8125V20.3125H21.875V17.9688H15.625C15.2106 17.9688 14.8132 17.8041 14.5201 17.5111C14.2271 17.2181 14.0625 16.8207 14.0625 16.4062V11.7188C14.0625 11.3043 14.2271 10.9069 14.5201 10.6139C14.8132 10.3209 15.2106 10.1562 15.625 10.1562H21.875V7.8125H3.125ZM21.875 16.4062V11.7188H15.625V16.4062H21.875ZM17.1875 13.2812H18.75V14.8438H17.1875V13.2812Z"
      fill="#404040" />
  </g>
</svg>