<svg width="31" height="27" viewBox="0 0 31 27" fill="none" xmlns="http://www.w3.org/2000/svg">
<path fill-rule="evenodd" clip-rule="evenodd" d="M12.5553 1.96169C9.40411 7.27353 3.69359 16.9155 0.495692 22.3078C-0.0442127 23.2173 -0.0546208 24.3459 0.46971 25.2643C0.994041 26.1821 1.97005 26.7496 3.0291 26.7496H27.1431C28.1969 26.7496 29.173 26.1821 29.6973 25.2643C30.2216 24.3459 30.2112 23.2173 29.6713 22.3078C26.4734 16.9155 20.7629 7.27353 17.6169 1.96169C17.0874 1.06773 16.1218 0.519531 15.0835 0.519531C14.0452 0.519531 13.0796 1.06773 12.5553 1.96169ZM13.1471 2.31472C13.552 1.63101 14.2892 1.21155 15.0835 1.21155C15.8778 1.21155 16.6149 1.63101 17.0199 2.31472C20.1659 7.62655 25.8816 17.2685 29.0743 22.6608C29.4896 23.356 29.4948 24.2193 29.0951 24.9211C28.6953 25.6235 27.9478 26.057 27.1431 26.057H3.0291C2.21924 26.057 1.47167 25.6235 1.07193 24.9211C0.672192 24.2193 0.677404 23.356 1.09272 22.6608C4.28542 17.2685 10.0011 7.62655 13.1471 2.31472ZM15.0835 19.8274C14.175 19.8274 13.4378 20.564 13.4378 21.4715C13.4378 22.3789 14.175 23.1156 15.0835 23.1156C15.992 23.1156 16.7292 22.3789 16.7292 21.4715C16.7292 20.564 15.992 19.8274 15.0835 19.8274ZM15.0835 20.5199C15.6078 20.5199 16.0335 20.9461 16.0335 21.4715C16.0335 21.9969 15.6078 22.4231 15.0835 22.4231C14.5592 22.4231 14.1335 21.9969 14.1335 21.4715C14.1335 20.9461 14.5592 20.5199 15.0835 20.5199ZM16.7292 8.25368C16.7292 8.15971 16.698 8.06834 16.6305 8.00085C16.563 7.93337 16.4748 7.89493 16.3813 7.89493H13.796C13.7026 7.89493 13.6144 7.93337 13.5521 8.00085C13.4846 8.06834 13.4482 8.15971 13.4534 8.25368L13.822 18.6365C13.8272 18.8228 13.9829 18.9703 14.1698 18.9703H16.0128C16.1997 18.9703 16.3502 18.8228 16.3554 18.6365L16.7292 8.25368ZM14.1594 8.58748L14.5021 18.2777H15.6753L16.0232 8.58748H14.1594Z" fill="#FF8E4F"/>
</svg>
